<svg width="28" height="28" viewBox="0 0 28 28" fill="none" xmlns="http://www.w3.org/2000/svg">
<g clip-path="url(#clip0_1995_7966)">
<path d="M9.98828 24.75H17.2188C18.8594 24.75 19.7383 23.7891 19.7383 22.2422V16.9922H24.4961C25.457 16.9922 26.207 16.4062 26.207 15.5156C26.207 14.9648 25.9258 14.5547 25.5039 14.1328L15.0508 3.71484C14.5938 3.25781 14.125 3 13.5977 3C13.082 3 12.6016 3.25781 12.1562 3.71484L1.70312 14.1328C1.24609 14.5781 1 14.9648 1 15.5156C1 16.4062 1.75 16.9922 2.69922 16.9922H7.46875V22.2422C7.46875 23.7891 8.34766 24.75 9.98828 24.75ZM10.1758 22.9336C9.73047 22.9336 9.42578 22.6289 9.42578 22.1953V15.6211C9.42578 15.3281 9.32031 15.2227 9.03906 15.2227H3.625C3.54297 15.2227 3.49609 15.1875 3.49609 15.1289C3.49609 15.082 3.51953 15.0469 3.56641 14.9883L13.3516 5.26172C13.4453 5.16797 13.5273 5.14453 13.5977 5.14453C13.6797 5.14453 13.7617 5.16797 13.8438 5.26172L23.6289 14.9883C23.6875 15.0469 23.6992 15.082 23.6992 15.1289C23.6992 15.1875 23.6641 15.2227 23.5703 15.2227H18.168C17.8867 15.2227 17.7812 15.3281 17.7812 15.6211V22.1953C17.7812 22.6172 17.4648 22.9336 17.0312 22.9336H10.1758Z" fill="white"/>
</g>
<defs>
<clipPath id="clip0_1995_7966">
<rect width="25.207" height="21.9023" fill="white" transform="translate(1 3)"/>
</clipPath>
</defs>
</svg>
