<svg width="930" height="930" viewBox="0 0 930 930" fill="none" xmlns="http://www.w3.org/2000/svg">
<path d="M793.059 208.718C791.03 209.858 788.906 210.749 786.687 211.668C774.504 173.631 749.655 149.613 709.726 135.094C677.855 123.506 624.309 103.695 614.006 100.282C612.698 103.057 612.677 106.08 611.433 108.913C648.582 122.853 671.812 131.062 701.968 142.071C736.027 154.504 766.463 181.474 776.964 216.971C773.48 218.922 769.791 220.2 766.02 221.669C755.718 190.278 731.025 165.56 698.352 153.629C668.51 142.733 636.678 130.851 607.414 120.551C603.621 126.369 600.521 132.473 596.061 137.875C586.85 134.693 578.187 128.937 569.492 124.541C511.128 163.308 438.96 171.678 365.427 124.772C356.357 129.09 347.492 133.719 338.358 138.083C333.56 132.738 329.949 126.864 326.615 120.571C296.484 131.223 265.306 142.802 234.765 154.01C202.614 165.809 176.793 190.929 167.208 221.485C166.695 222.815 157.372 218.145 156.122 217.664C167.208 180.234 198.146 154.418 231.681 142.208C261.689 131.282 293.136 119.97 321.989 109.104C321.231 106.207 320.516 103.475 319.74 100.507C285.789 112.53 251.566 125.143 217.9 137.519C178.467 153.078 156.984 178.374 146.441 212.064C144.333 211.226 142.411 210.463 140.23 209.611C140.057 208.67 140.01 207.777 140.249 206.969C150.474 169.911 179.542 144.292 214.581 131.584C249.967 118.751 285.138 105.834 320.736 92.8861C327.991 90.0677 334.439 85.9656 339.394 79.7908C346.557 70.8659 365.398 67.5788 391.192 66.8472C456.072 65.007 473.277 65.193 547.677 66.8473C581.157 70.773 587.744 71.5337 595.681 80.9543C600.114 86.2157 605.724 90.0943 612.298 92.4828C651.449 106.708 683.085 118.203 723.726 133.176C759.81 148.149 785.013 175.026 793.059 208.718ZM573.053 108.001C576.269 104.796 575.167 100.264 570.859 98.9458C495.69 83.0489 428.025 85.1509 363.059 97.5748C357.867 98.5678 356.572 104.151 360.55 107.485C423.15 154.01 503.967 163.587 573.053 108.001Z" fill="#333333"/>
<path d="M116.054 395.522C127.543 399.096 138.858 402.616 150.329 405.639C170.168 410.869 190.227 414.544 210.513 417.451C218.588 418.306 226.065 419.092 233.542 419.877C233.327 421.712 233.218 423.566 232.876 425.377C231.812 431.003 231.134 437.003 229.309 442.447C228.259 445.578 225.76 447.352 222.505 446.97C184.054 442.447 151.683 435.891 118.502 424.909C115.192 423.928 113.278 421.749 112.657 418.392C112.158 417.756 113.575 408.715 114.124 404.406C114.483 400.644 115.041 398.444 116.054 395.522Z" fill="#333333"/>
<path d="M817.22 395.436C805.731 399.01 794.416 402.529 782.945 405.553C763.106 410.782 743.047 414.457 722.761 417.365C714.685 418.219 707.209 419.005 699.732 419.791C699.947 421.625 700.056 423.48 700.398 425.291C701.462 430.917 702.14 436.917 703.965 442.36C705.015 445.491 707.514 447.266 710.769 446.883C749.22 442.36 781.591 435.805 814.772 424.822C818.082 423.842 819.996 421.662 820.617 418.305C821.116 417.67 819.699 408.628 819.149 404.32C818.791 400.558 818.232 398.358 817.22 395.436Z" fill="#333333"/>
</svg>
