<svg width="5000" height="5000" viewBox="0 0 5000 5000" fill="none" xmlns="http://www.w3.org/2000/svg">
<path d="M624.814 2177.23C620.837 2173.64 620.651 2169.1 621.263 2164.06C625.316 2130.62 629.161 2097.15 633.183 2063.71C637.859 2024.82 642.642 1985.94 647.388 1947.06C652.3 1906.82 657.278 1866.58 662.128 1826.33C666.649 1788.8 670.985 1751.25 675.505 1713.72C680.27 1674.15 685.219 1634.6 689.972 1595.03C694.642 1556.14 699.115 1517.22 703.771 1478.33C708.265 1440.79 712.891 1403.27 717.444 1365.75C722.163 1326.86 726.844 1287.96 731.579 1249.07C735.73 1214.98 739.735 1180.86 752.456 1147.18C765.211 1150.64 775.546 1154.88 786.886 1159.53C789 1153.24 790.802 1148.21 792.395 1143.1C821.509 1049.75 869.121 968.066 936.626 898.88C1003.89 829.938 1082.47 779.224 1171.17 745.55C1349.19 677.97 1527.47 611.105 1705.65 543.99C1709.75 542.446 1714.04 541.437 1718.84 540C1723.02 556.485 1726.86 571.658 1730.94 587.745C1724.49 590.595 1718.56 593.57 1712.4 595.89C1556.71 654.499 1400.99 713.042 1245.28 771.59C1180.44 795.969 1119.73 828.439 1064.08 870.683C960.29 949.472 885.429 1050.73 842.222 1176.42C840.745 1180.72 840.146 1185.33 838.948 1190.64C858.98 1198.6 877.044 1208.57 896.263 1214.08C897.619 1212.8 898.351 1212.43 898.566 1211.86C900.714 1206.1 902.799 1200.33 904.86 1194.54C934.566 1111.16 980.204 1038.53 1042.41 977.071C1105.93 914.318 1179.57 868.321 1261.87 837.133C1421.18 776.755 1580.66 716.861 1740.09 656.793C1744.92 654.974 1749.85 653.455 1755.81 651.43C1773.74 686.379 1793.16 718.997 1818.97 748.682C1868.08 724.445 1915.76 698.74 1964.53 674.761C1968.95 677.484 1972.99 679.758 1976.82 682.371C2033.11 720.833 2092.96 752.253 2155.42 778.515C2194.88 795.109 2235.63 807.766 2275 821.852C2269.97 823.911 2266.18 825.005 2262.18 826.158C2258.88 835.838 2260.48 845.534 2260.48 855C2260.39 2111.33 2260.39 3367.67 2260.36 4624C2260.36 4634.32 2259.94 4644.63 2257.86 4654.94C2197.52 4654.91 2139.04 4654.98 2080.55 4654.79C2064.69 4654.74 2048.72 4656.35 2033.07 4651.37C2028.8 4650 2023.83 4650.86 2019.19 4650.86C1947.41 4650.81 1875.63 4650.79 1803.35 4649.82C1802.49 4648.26 1802.14 4647.64 1802.26 4645.1C1802.89 4634.93 1803.18 4626.67 1803.18 4618.42C1803.2 3375.77 1803.2 2133.13 1803.19 890.483C1803.19 884.287 1803.39 878.075 1803.01 871.902C1802.82 868.814 1801.53 865.798 1800.66 862.464C1791.8 862.896 1785.22 866.307 1778.53 869.034C1742.49 883.703 1708.07 901.73 1674.81 922.216C1615.21 958.917 1564.26 1006.23 1519.12 1060.06C1475.69 1111.87 1441.31 1169.87 1415.83 1233.35C1397.14 1279.91 1384.04 1327.99 1375.1 1377.56C1368.99 1411.51 1367.53 1445.81 1364.8 1479.98C1361.79 1517.64 1360.79 1555.52 1360.31 1593.33C1359.08 1688.28 1363.12 1785.11 1368.38 1880C1368.38 1880 1372.37 1946.98 1374 1982C1380.87 1999.81 1375.2 2000.5 1375.25 2001C1377.44 2023.54 1378.07 2034.44 1380.09 2057C1381.87 2076.84 1384.72 2094.68 1386.5 2114.51C1387.85 2129.56 1390.66 2146.01 1392.5 2161C1395.84 2188.25 1399.04 2214.21 1402 2241.5C1405.48 2273.58 1407.5 2312.5 1407.5 2312.5C1407.5 2312.5 1417.88 2398.61 1420 2436.5C1417.24 2433.98 1408.67 2447.61 1407.97 2445.24C1396.98 2408 1386.8 2370.49 1375.13 2333.48C1361.19 2289.27 1346.22 2245.41 1331.28 2201.55C1324.03 2180.28 1315.72 2159.4 1308.16 2138.24C1306.65 2133.99 1300.61 2127 1297 2114.51C1292.92 2100.37 1292.1 2101.96 1288.01 2084.81C1287.47 2078.55 1287.73 2074.73 1281.6 2074.07C1270.46 2089.97 1276.22 2126.76 1265 2143.5C1257.5 2188.5 1265 2168 1265 2212.5C1261.5 2234 1260.5 2232 1257.5 2248.5C1253.5 2270.5 1251.5 2295 1244 2312.5C1216.69 2308.86 1076.93 2292.22 1051.33 2288.07C969.221 2274.77 888.152 2256.43 807.792 2234.56C746.105 2217.77 685.253 2198.22 624.814 2177.23Z" fill="white"/>
<path d="M4263.64 1131.19C4269.31 1138.39 4269.6 1147.45 4271.66 1155.83C4279.91 1189.29 4283.19 1223.57 4287.5 1257.67C4293.93 1308.51 4300.21 1359.37 4306.44 1410.23C4311.04 1447.71 4315.38 1485.22 4319.98 1522.69C4324.67 1560.83 4329.6 1598.94 4334.3 1637.08C4338.84 1673.88 4343.16 1710.71 4347.68 1747.52C4352.44 1786.33 4357.35 1825.12 4362.15 1863.93C4366.53 1899.4 4370.84 1934.88 4375.21 1970.34C4381.65 2022.54 4388.14 2074.73 4394.55 2126.94C4395.12 2131.62 4395.29 2136.35 4394.2 2143.08C4240.6 2199.06 4084.58 2237.11 3925.23 2261.29C3910.17 2263.58 3781.66 2287.45 3766.5 2287.5C3765.13 2282.32 3758.27 2243.5 3757 2235C3754 2215 3748.57 2176.86 3745 2152.5C3739.52 2115.08 3741.47 2124.11 3739.52 2101C3736.97 2071 3737.5 2077 3737 2072.5C3736.45 2067.53 3735.66 2047.96 3733.73 2045.33C3727.09 2048.21 3727.3 2053.67 3727.54 2059.14C3723.58 2074.41 3716.31 2090.36 3710.5 2107.5C3709 2111.5 3708.48 2112.73 3707.65 2115.08C3690.33 2164.41 3672.66 2213.62 3656.08 2263.21C3641.21 2307.68 3625.44 2351.9 3614.32 2397.59C3613.09 2402.63 3610.03 2407.21 3607.73 2410.17C3609.33 2384.14 3608.91 2359.16 3611 2335C3612.86 2313.54 3615.8 2289.93 3618 2268.5C3619.79 2251.07 3621.9 2228.89 3624 2211.5C3627.23 2184.76 3630.93 2161.25 3634 2134.5C3638.3 2097.04 3641.6 2062.06 3645 2024.5C3648.28 1988.27 3651.58 1948.33 3653.5 1912C3655.81 1868.23 3658.56 1830.08 3660.02 1786.26C3660.51 1771.42 3660.11 1756.55 3660.57 1741.7C3661.17 1722.17 3659.79 1715.53 3660.02 1696C3660.15 1684.6 3660.77 1665.5 3660.71 1648.89C3660.47 1586.81 3659.55 1524.77 3656.1 1462.74C3654.27 1429.72 3652.08 1396.72 3646.68 1364.2C3636.25 1301.34 3617.22 1240.96 3589.1 1183.86C3549.67 1103.8 3496.64 1034.38 3429.22 976.209C3367.11 922.625 3297.78 882.134 3220.92 854.675C3215.87 852.873 3210.98 850.556 3204.9 853.666C3202.02 861.68 3203.3 870.527 3203.3 879.178C3203.24 2104.05 3203.24 3328.92 3203.27 4553.8C3203.27 4561.22 3203.64 4568.63 3203.4 4576.95C3202.95 4577.85 3202.04 4579.65 3200.31 4579.74C3189.26 4579.88 3179.94 4579.98 3170.61 4579.98C3036.75 4580.04 2902.89 4580.08 2768.66 4578.26C2768.14 4566.27 2767.87 4556.15 2767.86 4546.03C2767.85 3315.3 2767.85 2084.58 2767.85 853.858C2767.85 846.432 2768.04 838.997 2767.74 831.583C2767.58 827.797 2766.52 824.049 2765.96 820.867C2758.96 819.001 2753.26 817.485 2749 815.376C2753.59 813.722 2756.71 812.53 2759.9 811.616C2862.49 782.286 2959.02 739.451 3047.91 679.483C3052.31 676.512 3056.95 673.893 3061.45 671.129C3067.85 674.405 3073.81 677.403 3079.72 680.494C3117.58 700.284 3155.41 720.131 3193.31 739.833C3196.66 741.572 3200.46 742.41 3204.3 743.754C3207.41 739.941 3210 736.912 3212.43 733.76C3230.13 710.829 3245.05 686.116 3258.36 660.354C3260.41 656.398 3263.15 652.812 3265.34 649.398C3267.9 650.066 3269.22 650.295 3270.46 650.753C3431.74 710.339 3593.03 769.916 3754.29 829.565C3794.43 844.413 3832.77 863.163 3869.13 885.879C3984.21 957.781 4067.4 1056.31 4112.65 1186.35C4114.18 1190.72 4116.06 1194.97 4118.12 1200.16C4138.4 1192.15 4158.23 1185.19 4176.96 1174.57C4175.51 1169.61 4174.57 1165.73 4173.26 1161.98C4139.4 1065.41 4085.38 982.221 4011.32 912.467C3942.09 847.258 3862.38 799.389 3773.73 766.607C3619.35 709.514 3464.9 652.577 3310.5 595.528C3303.08 592.787 3295.82 589.607 3286.95 586.008C3293.64 570.575 3293.76 554.11 3300.79 539C3307.2 541.152 3312.9 542.899 3318.48 544.963C3484.13 606.189 3649.73 667.572 3815.44 728.611C3854.9 743.145 3893.88 758.641 3930.75 779.161C4074.14 858.981 4175.09 974.785 4224.33 1134.47C4225.46 1138.12 4227.65 1141.43 4229.61 1145.46C4241.54 1140.46 4252.59 1135.83 4263.64 1131.19Z" fill="white"/>
<path d="M1303 2103.5C1299 2127 1271.5 2057 1287.5 2030C1295.05 2050.49 1324.33 2128.31 1331.57 2148.9C1346.51 2191.36 1361.48 2233.83 1375.41 2276.62C1387.08 2312.45 1397.25 2348.76 1408.24 2384.82C1408.94 2387.11 1410.95 2389.01 1414.06 2393.22C1415.96 2403.89 1415.86 2412.46 1416.5 2420.96C1416.78 2424.68 1418.59 2428.28 1419.64 2433.8C1419.89 2457.63 1421.02 2479.5 1423.18 2501.41C1425.46 2524.52 1425.42 2547.87 1426.84 2571.12C1429.46 2614.27 1428.45 2657.59 1431.21 2700.81C1432.82 2726.04 1431.8 2751.44 1431.8 2776.76C1431.82 3349.19 1431.82 3921.62 1431.77 4494.05C1431.77 4502.7 1431.03 4511.34 1428.89 4519.99C1413.9 4520 1400.66 4519.7 1387.43 4520.14C1381.61 4520.34 1375.41 4521.03 1370.13 4523.26C1348.41 4532.43 1327.33 4528.8 1306.85 4520.19C1300.49 4517.51 1294.56 4515.97 1287.9 4515.98C1266.72 4516.03 1245.53 4516 1224.35 4516C1225.86 4498.78 1227.02 4481.52 1228.93 4464.35C1235.39 4406.15 1242.21 4347.99 1248.71 4289.79C1254.99 4233.58 1261.3 4177.37 1267.11 4121.1C1271.96 4074.11 1276.06 4027.03 1280.54 3980C1285.28 3930.32 1290.18 3880.65 1294.82 3830.96C1296.85 3809.1 1298.38 3787.19 1300.2 3765.31C1303.63 3724.2 1307.14 3683.1 1310.56 3641.99C1312.22 3622.09 1313.92 3602.2 1315.28 3582.28C1318.56 3534.48 1321.68 3486.67 1324.82 3438.85C1328.22 3387.07 1331.88 3335.3 1334.86 3283.48C1337.3 3240.96 1339.02 3198.4 1340.84 3155.84C1342.38 3119.94 1343.78 3084.03 1344.96 3048.11C1346.44 3002.88 1346.91 2957.6 1349.13 2912.41C1353.61 2821.21 1351.4 2729.97 1351.38 2638.76C1351.38 2585.54 1349.02 2532.3 1346.75 2479.11C1345.03 2438.57 1343.83 2406.44 1340.5 2366C1340.5 2284.54 1329.1 2222.78 1313.92 2153C1310.45 2137.03 1306.78 2120.64 1303 2103.5Z" fill="white"/>
<path d="M3608.13 2387.96C3610.34 2383.23 3613.39 2378.71 3614.62 2373.73C3625.74 2328.63 3641.51 2284.99 3656.38 2241.09C3672.96 2192.14 3690.63 2143.57 3707.95 2094.88C3708.77 2092.55 3726.22 2034.98 3729 2032.5C3733.5 2033.5 3735.5 2039.5 3710.24 2115.18C3700.44 2163.5 3692.82 2212.16 3687.73 2261.2C3684.15 2295.63 3680.03 2330.03 3677.37 2364.53C3674.51 2401.71 3672.62 2438.98 3671.14 2476.23C3669.32 2522.14 3669.15 2568.13 3666.85 2614.01C3663.3 2684.62 3665.31 2755.25 3665.32 2825.86C3665.32 2883.79 3667.55 2941.72 3669.16 2999.64C3670.08 3032.91 3671.57 3066.17 3673.09 3099.43C3675.61 3154.63 3678.18 3209.83 3681.07 3265.02C3683.34 3308.23 3685.87 3351.43 3688.75 3394.61C3691.9 3441.77 3695.6 3488.89 3699.01 3536.04C3700.79 3560.61 3702.27 3585.21 3704.23 3609.77C3707.61 3652.24 3711.26 3694.69 3714.8 3737.15C3716.29 3755.06 3717.74 3772.98 3719.27 3790.89C3723.72 3842.63 3727.96 3894.4 3732.73 3946.12C3737.74 4000.49 3743.05 4054.83 3748.63 4109.14C3753.12 4152.85 3758.29 4196.49 3763.01 4240.18C3767.58 4282.55 3771.73 4324.96 3776.49 4367.31C3780.87 4406.34 3785.89 4445.3 3790.48 4484.31C3791.72 4494.9 3792.43 4505.54 3791.35 4518.02C3723.49 4519.95 3657.67 4520.01 3591.7 4518.19C3591.53 4507.65 3591.48 4498.99 3591.48 4490.33C3591.48 4032.56 3591 3574.78 3591.72 3117.01C3592 2937.18 3587.45 2757.3 3595.76 2577.52C3597.42 2541.63 3598.91 2505.74 3600.5 2469.85C3600.59 2467.85 3600.58 2465.8 3601.05 2463.89C3604.9 2448.14 3603.77 2432.11 3604.01 2414.56C3605.53 2404.63 3606.83 2396.29 3608.13 2387.96Z" fill="white"/>
<path d="M2260.05 4654.97C2256.08 4655.21 2252.1 4655.64 2248.13 4655.64C2101.28 4655.63 1954.42 4655.59 1805.62 4653.5C1803.57 4617.3 1803.52 4583.16 1803.3 4549.02C1803.25 4541.82 1802.6 4534.63 1802.22 4527.43C1802.22 4527.43 1802.98 4527.6 1805.26 4527.76C1852.07 4527.96 1896.6 4527.97 1941.13 4528.11C1947.76 4528.13 1954.72 4527.56 1960.92 4529.35C1970.12 4532.01 1979.28 4531.92 1988.55 4531.92C2078.95 4532 2169.34 4532.04 2260.19 4533.03C2260.97 4534.59 2261.3 4535.2 2261.26 4537.66C2260.73 4546.8 2260.51 4554.1 2260.47 4561.4C2260.3 4592.59 2260.18 4623.78 2260.05 4654.97Z" fill="white"/>
<path d="M2770.36 4655.34C2768.37 4609.89 2768.2 4564.83 2768.04 4515.74C2767.99 4509.46 2767.94 4507.2 2768.17 4505.12C2768.45 4505.3 2769.08 4505.42 2770.89 4505.31C2912.89 4505.12 3053.08 4505.04 3193.27 4505C3196.59 4505 3199.91 4505.41 3203.22 4505.63C3203.22 4505.63 3203.87 4505.37 3204 4507.54C3204 4558.08 3203.87 4606.46 3203.74 4654.83C3198.43 4655.23 3193.12 4655.96 3187.82 4655.97C3051.27 4656.02 2914.72 4656 2778.18 4655.98C2776.18 4655.98 2774.18 4655.81 2770.36 4655.34Z" fill="white"/>
<path d="M1428.89 4519.99C1431.02 4523.93 1431.75 4527.88 1431.75 4531.83C1431.76 4571.65 1431.65 4611.46 1431.49 4653.07C1421.44 4655.14 1411.49 4655.64 1401.53 4655.66C1364.95 4655.76 1328.32 4654.56 1291.8 4656.02C1255.79 4657.47 1211.82 4626.17 1216.06 4574.4C1217.57 4555.89 1220.8 4537.52 1223.8 4517.55C1245.53 4516 1266.72 4516.03 1287.9 4515.98C1294.56 4515.97 1300.49 4517.51 1306.85 4520.19C1327.32 4528.8 1348.41 4532.43 1370.13 4523.26C1375.41 4521.03 1381.61 4520.34 1387.43 4520.14C1400.66 4519.7 1413.9 4520 1428.89 4519.99Z" fill="white"/>
<path d="M3593.87 4655.35C3591.86 4615.32 3592 4556 3592 4516.5C3612.54 4513.87 3632.86 4534.14 3651.13 4528.47C3654.8 4527.33 3659.07 4528.06 3663.06 4528.06C3706.97 4528.07 3750.89 4528.1 3794.81 4528.13C3796.86 4544.63 3799.86 4561.08 3800.76 4577.65C3802.72 4613.96 3780.45 4644.01 3745.38 4653.37C3739.05 4655.06 3732.26 4655.58 3725.68 4655.6C3682.37 4655.75 3639.06 4655.61 3593.87 4655.35Z" fill="white"/>
<path d="M1256.36 2255.94C1215.4 2253.18 1175.21 2248.96 1133.47 2244.12C1136.44 2230.91 1145.68 2221.16 1152.6 2210.03C1160.96 2196.57 1171.28 2184.34 1180.3 2171.27C1202.89 2138.55 1225.08 2105.55 1247.71 2072.85C1258.93 2056.65 1270.77 2040.88 1281.9 2025.49C1288.03 2026.13 1287.77 2029.83 1288.22 2034.35C1284.24 2036.53 1285.95 2050.68 1285.5 2054C1284.62 2060.58 1300.07 2115.27 1281 2071.5C1269 2135.5 1268.34 2187.04 1258.94 2248.81C1258.64 2250.75 1257.74 2252.59 1256.36 2255.94Z" fill="white"/>
<path d="M3880.03 2242.37C3864.38 2246.28 3848.81 2249.3 3833.09 2251.03C3810.03 2253.56 3786.87 2255.16 3761.93 2257.21C3756.18 2232.31 3751.69 2207.43 3748.45 2182.38C3742.64 2137.52 3737.52 2092.58 3735.56 2047.34C3733 2045 3729.58 2044.5 3729.58 2039.43C3727.6 2034.26 3727.38 2028.87 3734.02 2026.02C3735.95 2028.62 3737.94 2031.19 3739.81 2033.84C3756.27 2057.13 3772.87 2080.32 3789.11 2103.76C3807.6 2130.46 3825.73 2157.41 3844.1 2184.2C3854.61 2199.51 3865.42 2214.62 3875.79 2230.03C3877.91 2233.18 3878.66 2237.25 3880.03 2242.37Z" fill="white"/>
<path d="M3795 4532.95C3750.88 4538.22 3707.03 4538.05 3663.18 4538C3659.2 4538 3654.94 4534.36 3651.28 4540.04C3633.03 4568.35 3594 4557.48 3594 4557.48C3594 4557.48 3592 4527.79 3592 4505.55C3657.8 4497.84 3723.53 4497.54 3791.23 4497C3793.89 4507.02 3794.58 4517.28 3795 4532.95Z" fill="white"/>
</svg>
