<svg width="930" height="930" viewBox="0 0 930 930" fill="none" xmlns="http://www.w3.org/2000/svg">
<path d="M422.09 151.259C450.073 156.519 470.347 160.797 509.779 151.125C510.709 150.897 512.662 150.846 513.466 152.032C513.871 153.264 513.871 154.473 513.871 156.519C513.871 211.203 513.686 820.446 513.686 865.83C502.154 865.83 437.612 865.83 419.57 865.83C419.574 682.136 419.377 214.066 419.383 157.263C419.383 155.496 419.104 153.822 419.662 152.055C419.848 151.466 421.243 151.099 422.09 151.259Z" fill="white"/>
<path d="M116.215 404.964C115.475 404.296 115.441 403.453 115.555 402.514C122.43 345.79 129.166 289.048 136.074 232.327C136.846 225.987 137.591 219.64 139.957 213.376C142.329 214.02 144.251 214.808 146.361 215.673C146.064 216.624 146.754 214.503 146.361 215.673C151.776 198.31 159.216 182.562 174.212 167.192C186.724 154.368 201.339 144.936 217.838 138.672C251.277 125.978 298.809 107.694 319.704 100.44C320.481 103.506 321.196 106.328 321.954 109.321C289.323 121.923 261.634 132.231 231.622 143.516C219.562 148.05 208.269 154.09 197.918 161.947C179.082 176.246 161.365 197.891 156.044 221.458C159.77 222.94 162.099 224.409 166.705 225.819C175.026 205.158 183.396 187.86 207.855 170.004C207.855 170.004 221.061 156.612 326.581 121.166C329.313 126.573 333.528 133.733 338.327 139.255C347.463 134.747 356.331 129.966 365.403 125.506C376.966 132.637 388.33 139.515 400.907 144.804C408.248 147.89 412.455 149.042 417.756 150.939C420.448 151.902 420.449 151.962 420.448 159.03C420.433 379.856 419.962 650.814 419.962 865.819C368.697 865.792 317.431 865.819 266.166 865.819C233.709 865.819 231.942 867.597 226.455 855.786C243.288 689.874 259.005 530.844 247.194 414.501C244.965 399.993 241.149 390.6 238.377 385.778C235.755 399.993 234.639 412.641 231.384 430.125C203.919 426.463 189.999 426.448 150.249 415.628C138.775 412.505 127.457 408.869 116.215 404.964Z" fill="white"/>
<path d="M817.407 404.964C818.147 404.296 818.181 403.453 818.067 402.514C811.192 345.79 804.456 289.048 797.548 232.327C796.776 225.987 796.031 219.64 793.665 213.376C791.293 214.02 789.371 214.808 787.261 215.673C787.558 216.624 786.868 214.503 787.261 215.673C781.846 198.31 774.406 182.562 759.41 167.192C746.898 154.368 732.283 144.936 715.784 138.672C682.346 125.978 634.813 107.694 613.918 100.44C613.141 103.506 612.426 106.328 611.668 109.321C644.299 121.923 671.988 132.231 702 143.516C714.06 148.05 725.353 154.09 735.704 161.947C754.54 176.246 772.257 197.891 777.578 221.458C773.852 222.94 771.523 224.409 766.917 225.819C758.596 205.158 750.226 187.86 725.767 170.004C725.767 170.004 712.561 156.612 607.041 121.166C604.309 126.573 600.094 133.733 595.295 139.255C586.159 134.747 577.291 129.966 568.219 125.506C556.656 132.637 545.292 139.515 532.715 144.804C525.374 147.89 521.167 149.042 515.866 150.939C513.174 151.902 513.173 151.962 513.174 159.03C513.189 379.856 513.66 650.814 513.66 865.819C564.925 865.792 616.191 865.819 667.456 865.819C699.913 865.819 701.68 867.597 707.167 855.786C690.334 689.874 674.617 530.844 686.428 414.501C688.657 399.993 692.473 390.6 695.246 385.778C697.867 399.993 698.983 412.641 702.238 430.125C729.703 426.463 743.623 426.448 783.373 415.628C794.847 412.505 806.165 408.869 817.407 404.964Z" fill="white"/>
</svg>
