<svg width="5000" height="5000" viewBox="0 0 5000 5000" fill="none" xmlns="http://www.w3.org/2000/svg">
<path d="M624.814 2177.23C620.837 2173.64 620.651 2169.1 621.263 2164.06C625.316 2130.62 629.161 2097.15 633.183 2063.71C637.859 2024.82 642.642 1985.94 647.388 1947.06C652.3 1906.82 657.278 1866.58 662.128 1826.33C666.649 1788.8 670.985 1751.25 675.505 1713.72C680.27 1674.15 685.219 1634.6 689.972 1595.03C694.642 1556.14 699.115 1517.22 703.771 1478.33C708.265 1440.79 712.891 1403.27 717.444 1365.75C722.163 1326.86 726.844 1287.96 731.579 1249.07C735.73 1214.98 739.735 1180.86 752.456 1147.18C765.211 1150.64 775.546 1154.88 786.886 1159.53C789 1153.24 790.802 1148.21 792.395 1143.1C821.509 1049.75 869.121 968.066 936.626 898.88C1003.89 829.938 1082.47 779.224 1171.17 745.55C1349.19 677.97 1527.47 611.105 1705.65 543.99C1709.75 542.446 1714.04 541.437 1718.84 540C1723.02 556.485 1726.86 571.658 1730.94 587.745C1724.49 590.595 1718.56 593.57 1712.4 595.89C1556.71 654.499 1400.99 713.042 1245.28 771.59C1180.44 795.969 1119.73 828.439 1064.08 870.683C960.29 949.472 885.429 1050.73 842.222 1176.42C840.745 1180.72 840.146 1185.33 838.948 1190.64C858.98 1198.6 877.044 1208.57 896.263 1214.08C897.619 1212.8 898.351 1212.43 898.566 1211.86C900.714 1206.1 902.799 1200.33 904.86 1194.54C934.566 1111.16 980.204 1038.53 1042.41 977.071C1105.93 914.318 1179.57 868.321 1261.87 837.133C1421.18 776.755 1580.66 716.861 1740.09 656.793C1744.92 654.974 1749.85 653.455 1755.81 651.43C1773.74 686.379 1793.16 718.997 1818.97 748.682C1868.08 724.445 1915.76 698.74 1964.53 674.761C1968.95 677.484 1972.99 679.758 1976.82 682.371C2033.11 720.833 2092.96 752.253 2155.42 778.515C2194.88 795.109 2235.63 807.766 2275 821.852C2269.97 823.911 2266.18 825.005 2262.18 826.158C2258.88 835.838 2260.48 845.534 2260.48 855C2260.39 2111.33 2260.39 3367.67 2260.36 4624C2260.36 4634.32 2259.94 4644.63 2257.86 4654.94C2197.52 4654.91 2139.04 4654.98 2080.55 4654.79C2064.69 4654.74 2048.72 4656.35 2033.07 4651.37C2028.8 4650 2023.83 4650.86 2019.19 4650.86C1947.41 4650.81 1875.63 4650.79 1803.35 4649.82C1802.49 4648.26 1802.14 4647.64 1802.26 4645.1C1802.89 4634.93 1803.18 4626.67 1803.18 4618.42C1803.2 3375.77 1803.2 2133.13 1803.19 890.483C1803.19 884.287 1803.39 878.075 1803.01 871.902C1802.82 868.814 1801.53 865.798 1800.66 862.464C1791.8 862.896 1785.22 866.307 1778.53 869.034C1742.49 883.703 1708.07 901.73 1674.81 922.216C1615.21 958.917 1564.26 1006.23 1519.12 1060.06C1475.69 1111.87 1441.31 1169.87 1415.83 1233.35C1397.14 1279.91 1384.04 1327.99 1375.1 1377.56C1368.99 1411.51 1367.53 1445.81 1364.8 1479.98C1361.79 1517.64 1360.79 1555.52 1360.31 1593.33C1359.08 1688.28 1358.19 1783.24 1363.45 1878.13C1365.39 1913.13 1366.75 1948.17 1368.38 1983.19C1368.44 1984.57 1368.56 1985.94 1368.69 1987.31C1370.89 2009.86 1373.22 2032.39 1375.25 2054.95C1377.03 2074.79 1378.31 2094.68 1380.09 2114.51C1381.44 2129.56 1383.05 2144.59 1384.89 2159.58C1388.23 2186.82 1392.25 2213.99 1395.21 2241.27C1398.7 2273.36 1401.4 2305.53 1404.36 2337.67C1407.88 2375.93 1411.32 2414.2 1413.44 2452.09C1410.68 2449.57 1408.67 2447.61 1407.97 2445.24C1396.98 2408 1386.8 2370.49 1375.13 2333.48C1361.19 2289.27 1346.22 2245.41 1331.28 2201.55C1324.03 2180.28 1315.72 2159.4 1308.16 2138.24C1306.65 2133.99 1300.61 2127 1297 2114.51C1292.92 2100.37 1292.1 2101.96 1288.01 2084.81C1287.47 2078.55 1287.73 2074.73 1281.6 2074.07C1270.46 2089.97 1276 2097.5 1272.5 2119C1268.5 2165 1270.5 2138.24 1265 2195C1262.5 2209 1261.5 2226.5 1258.5 2248.5C1258.5 2254.5 1248.1 2307 1244 2322.5C1216.69 2318.86 1076.93 2292.22 1051.33 2288.07C969.221 2274.77 888.152 2256.43 807.792 2234.56C746.105 2217.77 685.253 2198.22 624.814 2177.23Z" fill="white"/>
<path d="M4263.64 1131.19C4269.31 1138.39 4269.6 1147.45 4271.66 1155.83C4279.91 1189.29 4283.19 1223.57 4287.5 1257.67C4293.93 1308.51 4300.21 1359.37 4306.44 1410.23C4311.04 1447.71 4315.38 1485.22 4319.98 1522.69C4324.67 1560.83 4329.6 1598.94 4334.3 1637.08C4338.84 1673.88 4343.16 1710.71 4347.68 1747.52C4352.44 1786.33 4357.35 1825.12 4362.15 1863.93C4366.53 1899.4 4370.84 1934.88 4375.21 1970.34C4381.65 2022.54 4388.14 2074.73 4394.55 2126.94C4395.12 2131.62 4395.29 2136.35 4394.2 2143.08C4240.6 2199.06 4084.58 2237.11 3925.23 2261.29C3910.17 2263.58 3780.66 2286.45 3765.5 2286.5C3764.13 2281.32 3757 2234.5 3756 2229.5C3751.2 2205.5 3748 2175 3745 2155C3741.5 2120.5 3743 2133 3740.5 2112.5C3737.5 2082 3738 2080.5 3738 2067C3738 2058.64 3735.66 2047.96 3733.73 2045.33C3727.09 2048.21 3727.3 2053.67 3727.54 2059.14C3723.58 2074.41 3716.31 2090.36 3710.5 2107.5C3709 2111.5 3708.48 2112.73 3707.65 2115.08C3690.33 2164.41 3672.66 2213.62 3656.08 2263.21C3641.21 2307.68 3625.44 2351.9 3614.32 2397.59C3613.09 2402.63 3610.03 2407.21 3607.73 2410.17C3609.33 2384.14 3610.73 2359.92 3612.82 2335.75C3614.68 2314.29 3617.38 2292.91 3619.58 2271.47C3621.37 2254.05 3622.62 2236.56 3624.72 2219.17C3627.95 2192.43 3632.07 2165.81 3635.15 2139.06C3639.45 2101.59 3643.56 2064.09 3646.96 2026.54C3650.24 1990.31 3653.15 1954.01 3655.06 1917.68C3657.37 1873.91 3658.56 1830.08 3660.02 1786.26C3660.51 1771.42 3660.11 1756.55 3660.57 1741.7C3661.17 1722.17 3662.66 1702.67 3662.88 1683.14C3663.01 1671.73 3660.75 1660.31 3660.71 1648.89C3660.47 1586.81 3659.55 1524.77 3656.1 1462.74C3654.27 1429.72 3652.08 1396.72 3646.68 1364.2C3636.25 1301.34 3617.22 1240.96 3589.1 1183.86C3549.67 1103.8 3496.64 1034.38 3429.22 976.209C3367.11 922.625 3297.78 882.134 3220.92 854.675C3215.87 852.873 3210.98 850.556 3204.9 853.666C3202.02 861.68 3203.3 870.527 3203.3 879.178C3203.24 2104.05 3203.24 3328.92 3203.27 4553.8C3203.27 4561.22 3203.64 4568.63 3203.4 4576.95C3202.95 4577.85 3202.04 4579.65 3200.31 4579.74C3189.26 4579.88 3179.94 4579.98 3170.61 4579.98C3036.75 4580.04 2902.89 4580.08 2768.66 4578.26C2768.14 4566.27 2767.87 4556.15 2767.86 4546.03C2767.85 3315.3 2767.85 2084.58 2767.85 853.858C2767.85 846.432 2768.04 838.997 2767.74 831.583C2767.58 827.797 2766.52 824.049 2765.96 820.867C2758.96 819.001 2753.26 817.485 2749 815.376C2753.59 813.722 2756.71 812.53 2759.9 811.616C2862.49 782.286 2959.02 739.451 3047.91 679.483C3052.31 676.512 3056.95 673.893 3061.45 671.129C3067.85 674.405 3073.81 677.403 3079.72 680.494C3117.58 700.284 3155.41 720.131 3193.31 739.833C3196.66 741.572 3200.46 742.41 3204.3 743.754C3207.41 739.941 3210 736.912 3212.43 733.76C3230.13 710.829 3245.05 686.116 3258.36 660.354C3260.41 656.398 3263.15 652.812 3265.34 649.398C3267.9 650.066 3269.22 650.295 3270.46 650.753C3431.74 710.339 3593.03 769.916 3754.29 829.565C3794.43 844.413 3832.77 863.163 3869.13 885.879C3984.21 957.781 4067.4 1056.31 4112.65 1186.35C4114.18 1190.72 4116.06 1194.97 4118.12 1200.16C4138.4 1192.15 4158.23 1185.19 4176.96 1174.57C4175.51 1169.61 4174.57 1165.73 4173.26 1161.98C4139.4 1065.41 4085.38 982.221 4011.32 912.467C3942.09 847.258 3862.38 799.389 3773.73 766.607C3619.35 709.514 3464.9 652.577 3310.5 595.528C3303.08 592.787 3295.82 589.607 3286.95 586.008C3293.64 570.575 3293.76 554.11 3300.79 539C3307.2 541.152 3312.9 542.899 3318.48 544.963C3484.13 606.189 3649.73 667.572 3815.44 728.611C3854.9 743.145 3893.88 758.641 3930.75 779.161C4074.14 858.981 4175.09 974.785 4224.33 1134.47C4225.46 1138.12 4227.65 1141.43 4229.61 1145.46C4241.54 1140.46 4252.59 1135.83 4263.64 1131.19Z" fill="white"/>
<path d="M1303 2103.5C1299 2127 1271.5 2057 1287.5 2030C1295.05 2050.49 1324.33 2128.31 1331.57 2148.9C1346.51 2191.36 1361.48 2233.83 1375.41 2276.62C1387.08 2312.45 1397.25 2348.76 1408.24 2384.82C1408.94 2387.11 1410.95 2389.01 1414.06 2393.22C1415.96 2403.89 1415.86 2412.46 1416.5 2420.96C1416.78 2424.68 1418.59 2428.28 1419.64 2433.8C1419.89 2457.63 1421.02 2479.5 1423.18 2501.41C1425.46 2524.52 1425.42 2547.87 1426.84 2571.12C1429.46 2614.27 1428.45 2657.59 1431.21 2700.81C1432.82 2726.04 1431.8 2751.44 1431.8 2776.76C1431.82 3349.19 1431.82 3921.62 1431.77 4494.05C1431.77 4502.7 1431.03 4511.34 1428.89 4519.99C1413.9 4520 1400.66 4519.7 1387.43 4520.14C1381.61 4520.34 1375.41 4521.03 1370.13 4523.26C1348.41 4532.43 1327.33 4528.8 1306.85 4520.19C1300.49 4517.51 1294.56 4515.97 1287.9 4515.98C1266.72 4516.03 1245.53 4516 1224.35 4516C1225.86 4498.78 1227.02 4481.52 1228.93 4464.35C1235.39 4406.15 1242.21 4347.99 1248.71 4289.79C1254.99 4233.58 1261.3 4177.37 1267.11 4121.1C1271.96 4074.11 1276.06 4027.03 1280.54 3980C1285.28 3930.32 1290.18 3880.65 1294.82 3830.96C1296.85 3809.1 1298.38 3787.19 1300.2 3765.31C1303.63 3724.2 1307.14 3683.1 1310.56 3641.99C1312.22 3622.09 1313.92 3602.2 1315.28 3582.28C1318.56 3534.48 1321.68 3486.67 1324.82 3438.85C1328.22 3387.07 1331.88 3335.3 1334.86 3283.48C1337.3 3240.96 1339.02 3198.4 1340.84 3155.84C1342.38 3119.94 1343.78 3084.03 1344.96 3048.11C1346.44 3002.88 1346.91 2957.6 1349.13 2912.41C1353.61 2821.21 1351.4 2729.97 1351.38 2638.76C1351.38 2585.54 1349.02 2532.3 1346.75 2479.11C1345.03 2438.57 1343.83 2406.44 1340.5 2366C1340.5 2284.54 1329.1 2222.78 1313.92 2153C1310.45 2137.03 1306.78 2120.64 1303 2103.5Z" fill="white"/>
<path d="M3608.13 2387.96C3610.34 2383.23 3613.39 2378.71 3614.62 2373.73C3625.74 2328.63 3641.51 2284.99 3656.38 2241.09C3672.96 2192.14 3690.63 2143.57 3707.95 2094.88C3708.77 2092.55 3726.22 2034.98 3729 2032.5C3733.5 2033.5 3735.5 2039.5 3710.24 2115.18C3700.44 2163.5 3692.82 2212.16 3687.73 2261.2C3684.15 2295.63 3680.03 2330.03 3677.37 2364.53C3674.51 2401.71 3672.62 2438.98 3671.14 2476.23C3669.32 2522.14 3669.15 2568.13 3666.85 2614.01C3663.3 2684.62 3665.31 2755.25 3665.32 2825.86C3665.32 2883.79 3667.55 2941.72 3669.16 2999.64C3670.08 3032.91 3671.57 3066.17 3673.09 3099.43C3675.61 3154.63 3678.18 3209.83 3681.07 3265.02C3683.34 3308.23 3685.87 3351.43 3688.75 3394.61C3691.9 3441.77 3695.6 3488.89 3699.01 3536.04C3700.79 3560.61 3702.27 3585.21 3704.23 3609.77C3707.61 3652.24 3711.26 3694.69 3714.8 3737.15C3716.29 3755.06 3717.74 3772.98 3719.27 3790.89C3723.72 3842.63 3727.96 3894.4 3732.73 3946.12C3737.74 4000.49 3743.05 4054.83 3748.63 4109.14C3753.12 4152.85 3758.29 4196.49 3763.01 4240.18C3767.58 4282.55 3771.73 4324.96 3776.49 4367.31C3780.87 4406.34 3785.89 4445.3 3790.48 4484.31C3791.72 4494.9 3792.43 4505.54 3791.35 4518.02C3723.49 4519.95 3657.67 4520.01 3591.7 4518.19C3591.53 4507.65 3591.48 4498.99 3591.48 4490.33C3591.48 4032.56 3591 3574.78 3591.72 3117.01C3592 2937.18 3587.45 2757.3 3595.76 2577.52C3597.42 2541.63 3598.91 2505.74 3600.5 2469.85C3600.59 2467.85 3600.58 2465.8 3601.05 2463.89C3604.9 2448.14 3603.77 2432.11 3604.01 2414.56C3605.53 2404.63 3606.83 2396.29 3608.13 2387.96Z" fill="white"/>
<path d="M3603.81 2416.15C3603.77 2432.11 3604.9 2448.14 3601.05 2463.89C3600.58 2465.8 3600.59 2467.85 3600.5 2469.85C3598.91 2505.74 3597.42 2541.63 3595.76 2577.52C3587.45 2757.3 3592 2937.18 3591.72 3117.01C3591 3574.78 3591.48 4032.56 3591.48 4490.33C3591.48 4498.99 3591.53 4507.65 3591.63 4519.68C3591.77 4526.01 3591.84 4528.98 3591.74 4533.83C3591.72 4575.51 3591.86 4615.32 3591.99 4655.12C3554.5 4655.23 3517 4655.34 3477.69 4653.36C3475.91 4621.39 3475.85 4591.49 3476.01 4561.6C3476.06 4551.5 3475.09 4541.83 3468.65 4533.53C3466.44 4533.03 3464.53 4532.23 3462.63 4532.23C3432.73 4532.11 3402.84 4532.07 3372.95 4532.11C3369.65 4532.11 3366.09 4532.01 3363.11 4533.15C3354.1 4536.59 3344.8 4535.92 3335.53 4535.94C3291.69 4536 3247.84 4536 3203.7 4536.18C3203.4 4536.33 3202.76 4536.53 3203.01 4535.04C3202.96 4531.57 3202.67 4529.58 3202.37 4527.6C3202.37 4527.6 3203.28 4525.83 3205.58 4524.94C3286.53 4524.04 3365.18 4524.02 3443.82 4524C3449.15 4524 3454.52 4524.32 3459.8 4523.81C3463.53 4523.45 3467.15 4521.94 3472.04 4520.61C3472.04 4511.34 3472.04 4502.74 3472.04 4494.13C3472.04 4210.89 3472.04 3927.65 3472.05 3644.4C3472.06 3637.08 3470.79 3629.33 3472.72 3622.51C3477.02 3607.37 3475.83 3592.12 3475.92 3576.88C3476.13 3542.22 3475.99 3507.57 3476.06 3472.91C3476.08 3467.59 3475.29 3461.9 3476.88 3457.03C3480.7 3445.26 3479.89 3433.32 3479.96 3421.38C3480.07 3399.39 3479.99 3377.4 3480.06 3355.4C3480.08 3350.75 3479.37 3345.76 3480.76 3341.5C3485.04 3328.46 3483.57 3315.13 3484.02 3301.88C3484.71 3281.34 3481.74 3260.6 3487.6 3240.31C3488.68 3236.6 3487.96 3232.36 3487.97 3228.36C3488.01 3215.7 3487.9 3203.03 3488.08 3190.37C3488.15 3185.07 3488.69 3179.76 3489.24 3174.48C3490.05 3166.59 3491.49 3158.74 3491.91 3150.84C3493.49 3121.01 3494.76 3091.17 3496.18 3061.33C3496.28 3059.34 3496.25 3057.2 3496.99 3055.42C3500.68 3046.48 3499.54 3037.08 3500.07 3027.8C3501.31 3005.96 3502.93 2984.13 3504.43 2962.3C3504.53 2960.99 3505.04 2959.71 3505.21 2958.4C3506.17 2951.19 3507.3 2943.99 3507.95 2936.76C3509.61 2918.27 3510.91 2899.76 3512.64 2881.28C3513.43 2872.73 3514.97 2864.25 3516.02 2855.72C3517.65 2842.58 3518.95 2829.39 3520.77 2816.27C3522.95 2800.54 3525.72 2784.9 3527.89 2769.18C3529.78 2755.4 3530.61 2741.45 3532.94 2727.76C3537.6 2700.34 3543.43 2673.12 3547.9 2645.68C3553.66 2610.3 3562.01 2575.49 3569.96 2540.61C3578.07 2505.02 3587.29 2469.67 3596.37 2434.31C3597.98 2428.03 3601.28 2422.19 3603.81 2416.15Z" fill="white"/>
<path d="M1430.64 4519.99C1431.03 4511.34 1431.77 4502.7 1431.77 4494.05C1431.82 3921.62 1431.82 3349.19 1431.8 2776.76C1431.8 2751.44 1432.82 2726.04 1431.21 2700.81C1428.45 2657.59 1429.46 2614.26 1426.84 2571.12C1425.42 2547.87 1425.46 2524.52 1423.18 2501.4C1421.02 2479.49 1419.89 2457.63 1420.77 2434.81C1432.35 2476.45 1443.14 2518.87 1453.02 2561.49C1460.05 2591.82 1466.03 2622.4 1472.18 2652.93C1476.23 2673.04 1479.98 2693.22 1483.43 2713.45C1486.54 2731.71 1489.25 2750.06 1491.76 2768.42C1493.72 2782.85 1494.92 2797.39 1496.79 2811.85C1498.99 2828.89 1501.96 2845.85 1503.83 2862.93C1505.78 2880.71 1506.79 2898.58 1508.28 2916.41C1508.44 2918.38 1509.17 2920.3 1509.42 2922.27C1510.33 2929.49 1511.29 2936.7 1511.96 2943.94C1512.44 2949.23 1511.36 2954.95 1513 2959.8C1516.52 2970.25 1515.78 2980.83 1516.03 2991.44C1516.15 2996.76 1515.33 3002.45 1516.92 3007.32C1520.55 3018.42 1519.84 3029.67 1520.01 3040.95C1520.09 3046.28 1519.01 3051.97 1520.52 3056.87C1525.14 3071.9 1523.62 3087.21 1524.07 3102.46C1524.22 3107.75 1524.92 3113.03 1525.46 3118.3C1526.26 3126.2 1527.59 3134.07 1527.89 3141.98C1528.35 3154.62 1526.07 3167.74 1528.7 3179.85C1533.17 3200.42 1531.23 3220.93 1532.01 3241.46C1532.28 3248.78 1531.08 3256.49 1533.02 3263.32C1536.21 3274.52 1535.89 3285.7 1535.97 3296.97C1536.07 3312.96 1535.98 3328.96 1536.06 3344.95C1536.08 3349.6 1535.4 3354.6 1536.82 3358.84C1540.75 3370.57 1539.91 3382.52 1539.96 3394.47C1540.05 3419.12 1539.93 3443.77 1540.1 3468.42C1540.14 3474.38 1540.9 3480.33 1541.47 3486.27C1542.23 3494.17 1543.81 3502.05 1543.85 3509.95C1544.11 3555.25 1543.97 3600.56 1544.1 3645.87C1544.12 3652.49 1544.73 3659.13 1545.32 3665.74C1546.07 3674.3 1547.84 3682.84 1547.84 3691.39C1547.98 3946.58 1547.98 4201.77 1547.83 4456.96C1547.83 4465.5 1546.2 4474.06 1545.12 4482.58C1543.96 4491.75 1542.69 4500.88 1546.3 4509.96C1554.65 4513.15 1562.7 4511.69 1570.55 4512C1580.52 4512.4 1590.84 4511.11 1600.39 4513.29C1610.34 4515.57 1620.11 4515.91 1630.06 4515.94C1687.36 4516.12 1744.66 4516.23 1801.96 4516.36C1802.31 4516.95 1802.66 4517.55 1803.32 4520.36C1803.65 4524.3 1803.7 4526.04 1803.36 4527.69C1802.98 4527.6 1802.22 4527.43 1800.51 4527.61C1787.52 4527.84 1776.24 4528.09 1764.97 4527.89C1758.38 4527.77 1751.8 4527 1745.24 4526.37C1738.03 4525.68 1730.84 4524.26 1723.63 4524.15C1703.08 4523.83 1682.51 4524.01 1661.95 4524C1628.78 4523.98 1595.62 4523.9 1562.46 4524.02C1556.69 4524.04 1550.37 4522.5 1545.48 4528C1545.1 4529.68 1544.29 4531.6 1544.29 4533.51C1544.21 4573.97 1544.23 4614.43 1544.22 4654.89C1507.87 4655.07 1471.53 4655.26 1433.38 4653.37C1431.65 4611.46 1431.76 4571.65 1431.75 4531.83C1431.75 4527.88 1431.02 4523.93 1430.64 4519.99Z" fill="white"/>
<path d="M2260.05 4654.97C2256.08 4655.21 2252.1 4655.64 2248.13 4655.64C2101.28 4655.63 1954.42 4655.59 1805.62 4653.5C1803.57 4617.3 1803.52 4583.16 1803.3 4549.02C1803.25 4541.82 1802.6 4534.63 1802.22 4527.43C1802.22 4527.43 1802.98 4527.6 1805.26 4527.76C1852.07 4527.96 1896.6 4527.97 1941.13 4528.11C1947.76 4528.13 1954.72 4527.56 1960.92 4529.35C1970.12 4532.01 1979.28 4531.92 1988.55 4531.92C2078.95 4532 2169.34 4532.04 2260.19 4533.03C2260.97 4534.59 2261.3 4535.2 2261.26 4537.66C2260.73 4546.8 2260.51 4554.1 2260.47 4561.4C2260.3 4592.59 2260.18 4623.78 2260.05 4654.97Z" fill="white"/>
<path d="M2261.5 4655.14C2259.81 4588.6 2259.92 4522.71 2260.09 4456.82C2260.13 4441.41 2260.36 4426 2262.62 4406.76C2301.76 4403.06 2338.79 4403.17 2376.24 4406.56C2378.71 4419.04 2382.67 4419.89 2386.76 4419.94C2396.77 4420.05 2406.77 4419.83 2416.78 4420.17C2422.09 4420.35 2427.77 4419.12 2432.64 4422.59C2441.8 4429.13 2451.03 4428.49 2460.33 4428.5C2544.39 4428.55 2628.44 4428.56 2712.5 4428.5C2731.1 4428.49 2749.79 4430.91 2768.26 4424.01C2768.66 4503.35 2768.83 4578.76 2769 4654.17C2764.36 4654.8 2759.71 4656 2755.07 4656C2591.16 4656 2427.25 4655.89 2261.5 4655.14Z" fill="white"/>
<path d="M2770.36 4655.34C2768.37 4609.89 2768.2 4564.83 2768.04 4515.74C2767.99 4509.46 2767.94 4507.2 2768.17 4505.12C2768.45 4505.3 2769.08 4505.42 2770.89 4505.31C2912.89 4505.12 3053.08 4505.04 3193.27 4505C3196.59 4505 3199.91 4505.41 3203.22 4505.63C3203.22 4505.63 3203.87 4505.37 3204 4507.54C3204 4558.08 3203.87 4606.46 3203.74 4654.83C3198.43 4655.23 3193.12 4655.96 3187.82 4655.97C3051.27 4656.02 2914.72 4656 2778.18 4655.98C2776.18 4655.98 2774.18 4655.81 2770.36 4655.34Z" fill="white"/>
<path d="M1800.75 4432.58C1802.84 4444.82 1803.5 4457.37 1803.54 4469.93C1803.76 4529.49 1803.81 4589.06 1804 4651.77C1802.09 4655.29 1800.1 4656 1798.11 4656C1714.62 4655.94 1631.13 4655.82 1545.79 4655.17C1543.96 4584.05 1543.95 4513.46 1544.02 4442.88C1544.03 4439.54 1544.83 4436.19 1545.21 4433.27C1550.11 4423.67 1556.45 4426.36 1562.22 4426.32C1595.45 4426.11 1628.68 4426.26 1661.91 4426.29C1682.52 4426.3 1703.12 4425.98 1723.72 4426.54C1730.95 4426.73 1738.14 4429.22 1745.37 4430.42C1751.95 4431.52 1758.54 4432.86 1765.14 4433.07C1776.43 4433.43 1787.73 4432.99 1800.75 4432.58Z" fill="white"/>
<path d="M3204 4655C3202.24 4274.36 3203.88 3892.57 3204.18 3497.04C3248.13 3478.45 3291.92 3478.43 3335.71 3477.82C3344.96 3477.68 3354.25 3484.27 3363.25 3450.39C3366.22 3439.18 3369.78 3440.17 3373.07 3440.13C3402.93 3439.77 3432.78 3440.18 3462.64 3441.31C3464.54 3441.38 3466.45 3449.26 3468.65 3454.18C3475.09 3535.8 3476.05 3630.97 3476 3730.38C3475.84 4024.59 3475.9 4306.79 3475.82 4618.5C3475.82 4639 3478.45 4655.01 3475.82 4655C3389 4654.59 3294 4655 3204 4655Z" fill="white"/>
<path d="M1428.89 4519.99C1431.02 4523.93 1431.75 4527.88 1431.75 4531.83C1431.76 4571.65 1431.65 4611.46 1431.49 4653.07C1421.44 4655.14 1411.49 4655.64 1401.53 4655.66C1364.95 4655.76 1328.32 4654.56 1291.8 4656.02C1255.79 4657.47 1211.82 4626.17 1216.06 4574.4C1217.57 4555.89 1220.8 4537.52 1223.8 4517.55C1245.53 4516 1266.72 4516.03 1287.9 4515.98C1294.56 4515.97 1300.49 4517.51 1306.85 4520.19C1327.32 4528.8 1348.41 4532.43 1370.13 4523.26C1375.41 4521.03 1381.61 4520.34 1387.43 4520.14C1400.66 4519.7 1413.9 4520 1428.89 4519.99Z" fill="white"/>
<path d="M3593.87 4655.35C3591.86 4615.32 3592 4556 3592 4516.5C3612.54 4513.87 3632.86 4534.14 3651.13 4528.47C3654.8 4527.33 3659.07 4528.06 3663.06 4528.06C3706.97 4528.07 3750.89 4528.1 3794.81 4528.13C3796.86 4544.63 3799.86 4561.08 3800.76 4577.65C3802.72 4613.96 3780.45 4644.01 3745.38 4653.37C3739.05 4655.06 3732.26 4655.58 3725.68 4655.6C3682.37 4655.75 3639.06 4655.61 3593.87 4655.35Z" fill="white"/>
<path d="M1256.36 2255.94C1215.4 2253.18 1175.21 2248.96 1133.47 2244.12C1136.44 2230.91 1145.68 2221.16 1152.6 2210.03C1160.96 2196.57 1171.28 2184.34 1180.3 2171.27C1202.89 2138.55 1225.08 2105.55 1247.71 2072.85C1258.93 2056.65 1270.77 2040.88 1281.9 2025.49C1288.03 2026.13 1287.77 2029.83 1288.22 2034.35C1284.24 2036.53 1285.95 2050.68 1285.5 2054C1284.62 2060.58 1300.07 2115.27 1281 2071.5C1269 2135.5 1268.34 2187.04 1258.94 2248.81C1258.64 2250.75 1257.74 2252.59 1256.36 2255.94Z" fill="white"/>
<path d="M3880.03 2242.37C3864.38 2246.28 3848.81 2249.3 3833.09 2251.03C3810.03 2253.56 3786.87 2255.16 3761.93 2257.21C3756.18 2232.31 3751.69 2207.43 3748.45 2182.38C3742.64 2137.52 3737.52 2092.57 3735.56 2047.34C3733 2045 3729.58 2044.5 3729.58 2039.43C3727.6 2034.25 3727.38 2028.87 3734.02 2026.02C3735.95 2028.62 3737.94 2031.19 3739.81 2033.84C3756.27 2057.13 3772.87 2080.32 3789.11 2103.76C3807.6 2130.46 3825.73 2157.41 3844.1 2184.2C3854.61 2199.51 3865.42 2214.62 3875.79 2230.03C3877.91 2233.18 3878.66 2237.25 3880.03 2242.37Z" fill="white"/>
<path d="M3795 4532.95C3750.88 4538.22 3707.03 4538.05 3663.18 4538C3659.2 4538 3654.94 4534.36 3651.28 4540.04C3633.03 4568.35 3594 4557.48 3594 4557.48C3594 4557.48 3592 4527.79 3592 4505.55C3657.8 4497.84 3723.53 4497.54 3791.23 4497C3793.89 4507.02 3794.58 4517.28 3795 4532.95Z" fill="white"/>
<path d="M2275.05 813.219C2296.97 816.773 2317.58 821.65 2338.36 825.682C2417 840.944 2496.17 847.601 2576.3 841.06C2633.42 836.398 2689.66 827.317 2746.41 812.324C2753.62 814.041 2759.31 815.538 2766.32 817.379C2766.87 820.521 2767.94 824.22 2768.09 827.957C2768.4 835.275 2768.2 842.614 2768.2 849.945C2768.2 2064.77 2768.2 3279.59 2768.22 4494.42C2768.22 4504.41 2768.49 4514.4 2768.53 4526.2C2768.42 4528 2767.47 4527.84 2765.64 4527.89C2656.81 4527.95 2549.79 4527.97 2442.78 4527.92C2436.17 4527.91 2429.19 4528.48 2423.01 4526.65C2413.81 4523.94 2404.65 4524.08 2395.39 4524.06C2350.86 4523.94 2306.32 4523.89 2261.29 4523.84C2260.78 4523.87 2259.77 4524.03 2259.77 4524.03C2259.99 4514.04 2260.42 4504.06 2260.42 4494.07C2260.45 3277.82 2260.44 2061.56 2260.53 845.309C2260.53 836.145 2258.93 826.758 2262.23 817.387C2266.23 816.271 2270.02 815.212 2275.05 813.219Z" fill="white"/>
<path d="M1802.44 4514.5C1744.66 4516.23 1687.36 4516.12 1630.06 4515.94C1620.11 4515.91 1610.34 4515.57 1600.39 4513.29C1590.84 4511.11 1580.52 4512.4 1570.55 4512C1562.7 4511.69 1554.65 4513.15 1546.3 4509.96C1542.69 4500.88 1543.96 4491.75 1545.12 4482.58C1546.2 4474.06 1547.83 4465.5 1547.83 4456.96C1547.98 4201.77 1547.98 3946.58 1547.84 3691.39C1547.84 3682.84 1546.07 3674.3 1545.32 3665.74C1544.73 3659.13 1544.12 3652.49 1544.1 3645.87C1543.97 3600.56 1544.11 3555.25 1543.85 3509.95C1543.81 3502.05 1542.23 3494.17 1541.47 3486.27C1540.9 3480.33 1540.14 3474.38 1540.1 3468.42C1539.93 3443.77 1540.05 3419.12 1539.96 3394.46C1539.91 3382.52 1540.75 3370.57 1536.82 3358.84C1535.4 3354.6 1536.08 3349.6 1536.06 3344.95C1535.98 3328.96 1536.07 3312.96 1535.97 3296.97C1535.89 3285.7 1536.21 3274.52 1533.02 3263.32C1531.08 3256.49 1532.28 3248.78 1532.01 3241.46C1531.23 3220.93 1533.17 3200.42 1528.7 3179.85C1526.07 3167.74 1528.35 3154.62 1527.89 3141.98C1527.59 3134.07 1526.26 3126.2 1525.46 3118.3C1524.92 3113.03 1524.22 3107.75 1524.07 3102.45C1523.62 3087.21 1525.14 3071.9 1520.52 3056.87C1519.01 3051.97 1520.09 3046.28 1520.01 3040.95C1519.84 3029.67 1520.55 3018.42 1516.92 3007.32C1515.33 3002.45 1516.15 2996.76 1516.03 2991.44C1515.78 2980.83 1516.52 2970.25 1513 2959.8C1511.36 2954.95 1512.44 2949.23 1511.96 2943.94C1511.29 2936.7 1510.33 2929.49 1509.42 2922.27C1509.17 2920.3 1508.44 2918.38 1508.28 2916.41C1506.79 2898.58 1505.78 2880.71 1503.83 2862.93C1501.96 2845.85 1498.99 2828.89 1496.79 2811.85C1494.92 2797.39 1493.72 2782.85 1491.76 2768.42C1489.25 2750.06 1486.54 2731.71 1483.43 2713.45C1479.98 2693.22 1476.23 2673.04 1472.18 2652.93C1466.03 2622.4 1460.05 2591.82 1453.02 2561.49C1443.14 2518.87 1432.35 2476.45 1420.83 2432.94C1418.59 2428.28 1416.78 2424.68 1416.5 2420.96C1415.86 2412.45 1407.05 2383.81 1406.5 2373.5C1402.68 2334.69 1399.01 2311.54 1395.49 2274.5C1392.53 2243.39 1388.65 2205.56 1385.17 2174.5C1382.2 2148.08 1378.87 2132.38 1375.53 2106C1373.69 2091.49 1370.02 2056.57 1368.66 2042C1366.88 2022.79 1363.28 2005.21 1361.5 1986C1359.48 1964.16 1363.69 1964.83 1361.5 1943C1361.37 1941.67 1361.56 1931.33 1361.5 1930C1359.87 1896.09 1362.44 1869.39 1360.5 1835.5C1355.24 1743.64 1359.37 1652 1360.59 1560.08C1361.08 1523.48 1362.07 1486.81 1365.08 1450.35C1367.81 1417.27 1369.27 1384.06 1375.38 1351.2C1384.31 1303.21 1397.41 1256.66 1416.1 1211.59C1441.58 1150.14 1475.94 1093.99 1519.37 1043.83C1564.49 991.713 1615.43 945.911 1675.01 910.38C1708.27 890.548 1742.68 873.096 1778.7 858.895C1785.4 856.255 1791.97 852.953 1800.83 852.535C1801.7 855.762 1802.99 858.682 1803.18 861.672C1803.57 867.647 1803.36 873.661 1803.36 879.659C1803.37 2082.66 1803.37 3285.66 1803.35 4488.67C1803.35 4496.66 1803.07 4504.65 1802.44 4514.5Z" fill="white"/>
<path d="M3603.81 2424.6C3601.08 2432.29 3597.77 2438.16 3596.16 2444.48C3587.08 2480.08 3577.85 2515.65 3569.74 2551.48C3561.79 2586.59 3553.43 2621.63 3547.67 2657.24C3543.21 2684.86 3537.37 2712.26 3532.71 2739.86C3530.38 2753.64 3529.55 2767.68 3527.66 2781.55C3525.49 2797.38 3522.72 2813.12 3520.54 2828.95C3518.72 2842.15 3517.42 2855.43 3515.79 2868.66C3514.73 2877.25 3513.2 2885.78 3512.4 2894.39C3510.67 2912.99 3509.37 2931.62 3507.71 2950.23C3507.06 2957.51 3505.93 2964.75 3504.98 2972.01C3504.8 2973.33 3504.29 2974.62 3504.2 2975.94C3502.69 2997.92 3501.07 3019.89 3499.83 3041.88C3499.3 3051.21 3500.44 3060.67 3496.74 3069.67C3496.01 3071.47 3496.03 3073.62 3495.94 3075.62C3494.52 3105.65 3493.25 3135.69 3491.67 3165.72C3491.25 3173.67 3489.81 3181.58 3488.99 3189.52C3488.45 3194.83 3487.91 3200.17 3487.83 3205.51C3487.65 3218.25 3487.77 3231 3487.73 3243.75C3487.71 3247.77 3488.43 3252.04 3487.36 3255.78C3481.49 3276.2 3484.47 3297.07 3483.78 3317.75C3483.33 3331.09 3484.79 3344.5 3480.52 3357.63C3479.12 3361.92 3479.83 3366.94 3479.81 3371.63C3479.74 3393.76 3479.83 3415.9 3479.71 3438.04C3479.65 3450.06 3480.45 3462.07 3476.63 3473.92C3475.05 3478.82 3475.83 3484.55 3475.82 3489.91C3475.74 3524.79 3475.88 3559.67 3475.67 3594.56C3475.58 3609.9 3476.77 3625.25 3472.47 3640.49C3470.54 3647.35 3471.81 3655.15 3471.8 3662.53C3471.79 3947.63 3471.79 4232.73 3471.79 4517.84C3471.79 4526.5 3471.79 4535.16 3471.79 4544.49C3466.9 4545.83 3463.28 4547.35 3459.55 4547.71C3454.26 4548.22 3448.89 4547.9 3443.56 4547.9C3364.89 4547.92 3286.22 4547.94 3205.69 4547.96C3203.63 4540.58 3203.25 4533.22 3203.25 4525.84C3203.23 3308.85 3203.22 2091.86 3203.28 874.865C3203.28 866.269 3202.01 857.479 3204.89 849.516C3210.97 846.426 3215.86 848.729 3220.91 850.519C3297.79 877.801 3367.14 918.032 3429.26 971.271C3496.71 1029.07 3549.75 1098.04 3589.19 1177.59C3617.32 1234.32 3636.36 1294.31 3646.79 1356.76C3652.19 1389.08 3654.38 1421.87 3656.21 1454.68C3659.66 1516.3 3660.59 1577.94 3660.82 1639.63C3660.87 1650.97 3663.13 1662.32 3662.99 1673.65C3662.77 1693.05 3661.28 1712.44 3660.68 1731.84C3660.23 1746.59 3660.63 1761.36 3660.13 1776.11C3658.67 1819.64 3666.31 1850.01 3664 1893.5C3662.08 1929.59 3658.45 1950 3655.17 1986C3651.77 2023.31 3646.8 2065.28 3642.5 2102.5C3639.43 2129.08 3638.48 2159.44 3635.25 2186C3633.15 2203.27 3626.61 2225.19 3624.82 2242.5C3622.62 2263.8 3621.54 2294.68 3619.68 2316C3617.59 2340.01 3616 2368.5 3607.83 2396.01C3606.62 2406.22 3605.32 2414.61 3603.81 2424.6Z" fill="white"/>
</svg>
