<svg width="5000" height="5000" viewBox="0 0 5000 5000" fill="none" xmlns="http://www.w3.org/2000/svg">
<path d="M3603.81 2416.15C3603.77 2432.11 3604.9 2448.14 3601.05 2463.89C3600.58 2465.8 3600.59 2467.85 3600.5 2469.85C3598.91 2505.74 3597.42 2541.63 3595.76 2577.52C3587.45 2757.3 3592 2937.18 3591.72 3117.01C3591 3574.78 3591.48 4032.56 3591.48 4490.33C3591.48 4498.99 3591.53 4507.65 3591.63 4519.68C3591.77 4526.01 3591.84 4528.98 3591.74 4533.83C3591.72 4575.51 3591.74 4615 3594 4655.12C3556.5 4655.23 3511.5 4655.12 3472.04 4655.12C3470.25 4623.15 3475.34 4591.39 3475.5 4561.5C3475.55 4551.4 3475.09 4541.83 3468.65 4533.53C3466.44 4533.03 3464.53 4532.23 3462.63 4532.23C3432.73 4532.11 3402.84 4532.07 3372.95 4532.11C3369.65 4532.11 3366.09 4532.01 3363.11 4533.15C3354.1 4536.59 3344.8 4535.92 3335.53 4535.94C3291.69 4536 3247.84 4536 3203.7 4536.18C3203.4 4536.33 3202.76 4536.53 3203.01 4535.04C3202.96 4531.57 3202.67 4529.58 3202.37 4527.6C3202.37 4527.6 3203.28 4525.83 3205.58 4524.94C3286.53 4524.04 3365.18 4524.02 3443.82 4524C3449.15 4524 3454.52 4524.32 3459.8 4523.81C3463.53 4523.45 3467.15 4521.94 3472.04 4520.61C3472.04 4511.34 3472.04 4502.74 3472.04 4494.13C3472.04 4210.89 3472.04 3927.65 3472.05 3644.4C3472.06 3637.08 3470.79 3629.33 3472.72 3622.51C3477.02 3607.37 3475.83 3592.12 3475.92 3576.88C3476.13 3542.22 3475.99 3507.57 3476.06 3472.91C3476.08 3467.59 3475.29 3461.9 3476.88 3457.03C3480.7 3445.26 3479.89 3433.32 3479.96 3421.38C3480.07 3399.39 3479.99 3377.4 3480.06 3355.4C3480.08 3350.75 3479.37 3345.76 3480.76 3341.5C3485.04 3328.46 3483.57 3315.13 3484.02 3301.88C3484.71 3281.34 3481.74 3260.6 3487.6 3240.31C3488.68 3236.6 3487.96 3232.36 3487.97 3228.36C3488.01 3215.7 3487.9 3203.03 3488.08 3190.37C3488.15 3185.07 3488.69 3179.76 3489.24 3174.48C3490.05 3166.59 3491.49 3158.74 3491.91 3150.84C3493.49 3121.01 3494.76 3091.17 3496.18 3061.33C3496.28 3059.34 3496.25 3057.2 3496.99 3055.42C3500.68 3046.48 3499.54 3037.08 3500.07 3027.8C3501.31 3005.96 3502.93 2984.13 3504.43 2962.3C3504.53 2960.99 3505.04 2959.71 3505.21 2958.4C3506.17 2951.19 3507.3 2943.99 3507.95 2936.76C3509.61 2918.27 3510.91 2899.76 3512.64 2881.28C3513.43 2872.73 3514.97 2864.25 3516.02 2855.72C3517.65 2842.58 3518.95 2829.39 3520.77 2816.27C3522.95 2800.54 3525.72 2784.9 3527.89 2769.18C3529.78 2755.4 3530.61 2741.45 3532.94 2727.76C3537.6 2700.34 3543.43 2673.12 3547.9 2645.68C3553.66 2610.3 3562.01 2575.49 3569.96 2540.61C3578.07 2505.02 3587.29 2469.67 3596.37 2434.31C3597.98 2428.03 3601.28 2422.19 3603.81 2416.15Z" fill="#808080"/>
<path d="M1430.64 4519.99C1431.03 4511.34 1431.77 4502.7 1431.77 4494.05C1431.83 3921.62 1431.82 3349.19 1431.8 2776.76C1431.8 2751.44 1432.82 2726.04 1431.21 2700.81C1428.45 2657.59 1429.46 2614.26 1426.84 2571.12C1425.43 2547.87 1425.46 2524.52 1423.18 2501.4C1421.03 2479.49 1416 2440.5 1419 2419C1430.59 2460.65 1443.14 2518.87 1453.02 2561.49C1460.06 2591.82 1466.03 2622.4 1472.18 2652.93C1476.23 2673.04 1479.99 2693.22 1483.43 2713.45C1486.54 2731.71 1489.26 2750.06 1491.76 2768.42C1493.73 2782.85 1494.93 2797.39 1496.79 2811.85C1498.99 2828.89 1501.96 2845.85 1503.83 2862.93C1505.78 2880.71 1506.79 2898.58 1508.28 2916.41C1508.45 2918.38 1509.17 2920.3 1509.42 2922.27C1510.33 2929.49 1511.29 2936.7 1511.96 2943.94C1512.45 2949.23 1511.37 2954.95 1513 2959.8C1516.52 2970.25 1515.79 2980.83 1516.03 2991.44C1516.15 2996.76 1515.33 3002.45 1516.93 3007.32C1520.56 3018.42 1519.84 3029.67 1520.01 3040.95C1520.09 3046.28 1519.02 3051.97 1520.52 3056.87C1525.15 3071.9 1523.62 3087.21 1524.07 3102.46C1524.23 3107.75 1524.93 3113.03 1525.46 3118.3C1526.27 3126.2 1527.6 3134.07 1527.89 3141.98C1528.36 3154.62 1526.07 3167.74 1528.7 3179.85C1533.18 3200.42 1531.24 3220.93 1532.01 3241.46C1532.29 3248.78 1531.08 3256.49 1533.02 3263.32C1536.21 3274.52 1535.9 3285.7 1535.97 3296.97C1536.07 3312.96 1535.98 3328.96 1536.06 3344.95C1536.09 3349.6 1535.41 3354.6 1536.83 3358.84C1540.75 3370.57 1539.91 3382.52 1539.96 3394.47C1540.06 3419.12 1539.93 3443.77 1540.11 3468.42C1540.15 3474.38 1540.91 3480.33 1541.48 3486.27C1542.23 3494.17 1543.81 3502.05 1543.85 3509.95C1544.11 3555.25 1543.97 3600.56 1544.1 3645.87C1544.12 3652.49 1544.74 3659.13 1545.32 3665.74C1546.07 3674.3 1547.84 3682.84 1547.84 3691.39C1547.98 3946.58 1547.98 4201.77 1547.84 4456.96C1547.83 4465.5 1546.2 4474.06 1545.13 4482.58C1543.97 4491.75 1542.7 4500.88 1546.3 4509.96C1554.65 4513.15 1562.7 4511.69 1570.55 4512C1580.53 4512.4 1590.85 4511.11 1600.39 4513.29C1610.35 4515.57 1620.12 4515.91 1630.06 4515.94C1687.36 4516.12 1744.66 4516.23 1801.96 4516.36C1802.31 4516.95 1802.67 4517.55 1803.32 4520.36C1803.66 4524.3 1803.7 4526.04 1803.36 4527.69C1802.98 4527.6 1802.22 4527.43 1800.51 4527.61C1787.52 4527.84 1776.24 4528.09 1764.97 4527.89C1758.39 4527.77 1751.81 4527 1745.24 4526.37C1738.03 4525.68 1730.85 4524.26 1723.64 4524.15C1703.08 4523.83 1682.51 4524.01 1661.95 4524C1628.79 4523.98 1595.62 4523.9 1562.46 4524.02C1556.69 4524.04 1550.37 4522.5 1545.48 4528C1545.1 4529.68 1544.3 4531.6 1544.29 4533.51C1544.22 4573.97 1544.23 4614.43 1544.22 4654.89C1507.88 4655.07 1471.53 4655.26 1433.38 4653.37C1431.65 4611.46 1431.76 4571.65 1431.76 4531.83C1431.75 4527.88 1431.03 4523.93 1430.64 4519.99Z" fill="#808080"/>
<path d="M2261.5 4655.14C2259.81 4588.6 2259.92 4522.71 2260.09 4456.82C2260.13 4441.41 2260.36 4426 2262.62 4406.76C2301.76 4403.06 2338.79 4403.17 2376.24 4406.56C2378.71 4419.04 2382.67 4419.89 2386.76 4419.94C2396.77 4420.05 2406.77 4419.83 2416.78 4420.17C2422.09 4420.35 2427.77 4419.12 2432.64 4422.59C2441.8 4429.13 2451.03 4428.49 2460.33 4428.5C2544.39 4428.55 2628.44 4428.56 2712.5 4428.5C2731.1 4428.49 2749.79 4430.91 2768.26 4424.01C2768.66 4503.35 2768.83 4578.76 2769 4654.17C2764.36 4654.8 2759.71 4656 2755.07 4656C2591.16 4656 2427.25 4655.89 2261.5 4655.14Z" fill="#808080"/>
<path d="M1800.75 4432.58C1802.84 4444.82 1803.5 4457.37 1803.54 4469.93C1803.76 4529.49 1803.81 4589.06 1804 4651.77C1802.09 4655.29 1800.1 4656 1798.11 4656C1714.62 4655.94 1631.13 4655.82 1545.79 4655.17C1543.96 4584.05 1543.95 4513.46 1544.02 4442.88C1544.03 4439.54 1544.83 4436.19 1545.21 4433.27C1550.11 4423.67 1556.45 4426.36 1562.22 4426.32C1595.45 4426.11 1628.68 4426.26 1661.91 4426.29C1682.52 4426.3 1703.12 4425.98 1723.72 4426.54C1730.95 4426.73 1738.14 4429.22 1745.37 4430.42C1751.95 4431.52 1758.54 4432.86 1765.14 4433.07C1776.43 4433.43 1787.73 4432.99 1800.75 4432.58Z" fill="#808080"/>
<path d="M3204 4655C3202.24 4274.36 3203.88 3892.57 3204.18 3497.04C3248.13 3478.45 3291.92 3478.43 3335.71 3477.82C3344.96 3477.68 3354.25 3484.27 3363.25 3450.39C3366.22 3439.18 3369.78 3440.17 3373.07 3440.13C3402.93 3439.77 3432.78 3440.18 3462.64 3441.31C3464.54 3441.38 3466.45 3449.26 3468.65 3454.18C3475.09 3535.8 3476.05 3630.97 3476 3730.38C3475.84 4024.59 3475.9 4306.79 3475.82 4618.5C3475.82 4639 3478.45 4655.01 3475.82 4655C3389 4654.59 3294 4655 3204 4655Z" fill="#808080"/>
<path d="M2275.05 813.219C2296.97 816.773 2317.58 821.65 2338.36 825.682C2417 840.944 2496.17 847.601 2576.3 841.06C2633.42 836.398 2689.66 827.317 2746.41 812.324C2753.62 814.041 2759.31 815.538 2766.32 817.379C2766.87 820.521 2767.94 824.22 2768.09 827.957C2768.4 835.275 2768.2 842.614 2768.2 849.945C2768.2 2064.77 2768.2 3279.59 2768.22 4494.42C2768.22 4504.41 2768.49 4514.4 2768.53 4526.2C2768.42 4528 2767.47 4527.84 2765.64 4527.89C2656.81 4527.95 2549.79 4527.97 2442.78 4527.92C2436.17 4527.91 2429.19 4528.48 2423.01 4526.65C2413.81 4523.94 2404.65 4524.08 2395.39 4524.06C2350.86 4523.94 2306.32 4523.89 2261.29 4523.84C2260.78 4523.87 2259.77 4524.03 2259.77 4524.03C2259.99 4514.04 2260.42 4504.06 2260.42 4494.07C2260.45 3277.82 2260.44 2061.56 2260.53 845.309C2260.53 836.145 2258.93 826.758 2262.23 817.387C2266.23 816.271 2270.02 815.212 2275.05 813.219Z" fill="#808080"/>
<path d="M1802.44 4514.5C1744.66 4516.23 1687.36 4516.12 1630.06 4515.94C1620.11 4515.91 1610.34 4515.57 1600.39 4513.29C1590.84 4511.11 1580.52 4512.4 1570.55 4512C1562.7 4511.69 1554.65 4513.15 1546.3 4509.96C1542.69 4500.88 1543.97 4491.75 1545.12 4482.58C1546.2 4474.06 1547.83 4465.5 1547.83 4456.96C1547.98 4201.77 1547.98 3946.58 1547.84 3691.39C1547.84 3682.84 1546.07 3674.3 1545.32 3665.74C1544.73 3659.13 1544.12 3652.49 1544.1 3645.87C1543.97 3600.56 1544.11 3555.25 1543.85 3509.95C1543.81 3502.05 1542.23 3494.17 1541.47 3486.27C1540.9 3480.33 1540.14 3474.38 1540.1 3468.42C1539.93 3443.77 1540.05 3419.12 1539.96 3394.46C1539.91 3382.52 1540.75 3370.57 1536.82 3358.84C1535.4 3354.6 1536.08 3349.6 1536.06 3344.95C1535.98 3328.96 1536.07 3312.96 1535.97 3296.97C1535.89 3285.7 1536.21 3274.52 1533.02 3263.32C1531.08 3256.49 1532.28 3248.78 1532.01 3241.46C1531.23 3220.93 1533.17 3200.42 1528.7 3179.85C1526.07 3167.74 1528.35 3154.62 1527.89 3141.98C1527.59 3134.07 1526.26 3126.2 1525.46 3118.3C1524.92 3113.03 1524.22 3107.75 1524.07 3102.45C1523.62 3087.21 1525.14 3071.9 1520.52 3056.87C1519.01 3051.97 1520.09 3046.28 1520.01 3040.95C1519.84 3029.67 1520.55 3018.42 1516.92 3007.32C1515.33 3002.45 1516.15 2996.76 1516.03 2991.44C1515.78 2980.83 1516.52 2970.25 1513 2959.8C1511.36 2954.95 1512.44 2949.23 1511.96 2943.94C1511.29 2936.7 1510.33 2929.49 1509.42 2922.27C1509.17 2920.3 1508.44 2918.38 1508.28 2916.41C1506.79 2898.58 1505.78 2880.71 1503.83 2862.93C1501.96 2845.85 1498.99 2828.89 1496.79 2811.85C1494.92 2797.39 1493.72 2782.85 1491.76 2768.42C1489.25 2750.06 1486.54 2731.71 1483.43 2713.45C1479.98 2693.22 1476.23 2673.04 1472.18 2652.93C1466.03 2622.4 1460.05 2591.82 1453.02 2561.49C1443.14 2518.87 1432.35 2476.45 1420.83 2432.94C1418.59 2428.28 1416.78 2424.68 1416.5 2420.96C1415.86 2412.45 1415.96 2403.89 1415.41 2393.58C1411.59 2354.77 1408.15 2317.72 1404.63 2280.68C1401.67 2249.56 1398.97 2218.42 1395.49 2187.36C1392.53 2160.94 1388.51 2134.64 1385.17 2108.27C1383.33 2093.76 1381.72 2079.21 1380.37 2064.64C1378.59 2045.44 1377.31 2026.18 1375.53 2006.98C1373.51 1985.14 1371.17 1963.32 1368.98 1941.5C1368.84 1940.17 1368.73 1938.84 1368.66 1937.51C1367.03 1903.61 1365.67 1869.68 1363.73 1835.8C1358.48 1743.94 1359.37 1652 1360.59 1560.08C1361.08 1523.48 1362.07 1486.81 1365.08 1450.35C1367.81 1417.27 1369.27 1384.06 1375.38 1351.2C1384.31 1303.21 1397.41 1256.66 1416.1 1211.59C1441.58 1150.14 1475.94 1093.99 1519.37 1043.83C1564.49 991.713 1615.43 945.911 1675.01 910.38C1708.27 890.548 1742.68 873.096 1778.7 858.895C1785.4 856.255 1791.97 852.953 1800.83 852.535C1801.7 855.762 1802.99 858.682 1803.18 861.672C1803.57 867.647 1803.36 873.661 1803.36 879.659C1803.37 2082.66 1803.37 3285.66 1803.35 4488.67C1803.35 4496.66 1803.07 4504.65 1802.44 4514.5Z" fill="#808080"/>
<path d="M3603.81 2424.6C3601.08 2432.29 3597.77 2438.16 3596.16 2444.48C3587.08 2480.08 3577.85 2515.65 3569.74 2551.48C3561.79 2586.59 3553.43 2621.63 3547.67 2657.24C3543.21 2684.86 3537.37 2712.26 3532.71 2739.86C3530.38 2753.64 3529.55 2767.68 3527.66 2781.55C3525.49 2797.38 3522.72 2813.12 3520.54 2828.95C3518.72 2842.15 3517.42 2855.43 3515.79 2868.66C3514.73 2877.25 3513.2 2885.78 3512.4 2894.39C3510.67 2912.99 3509.37 2931.62 3507.71 2950.23C3507.06 2957.51 3505.93 2964.75 3504.98 2972.01C3504.8 2973.33 3504.29 2974.62 3504.2 2975.94C3502.69 2997.92 3501.07 3019.89 3499.83 3041.88C3499.3 3051.21 3500.44 3060.67 3496.74 3069.67C3496.01 3071.47 3496.03 3073.62 3495.94 3075.62C3494.52 3105.65 3493.25 3135.69 3491.67 3165.72C3491.25 3173.67 3489.81 3181.58 3488.99 3189.52C3488.45 3194.83 3487.91 3200.17 3487.83 3205.51C3487.65 3218.25 3487.77 3231 3487.73 3243.75C3487.71 3247.77 3488.43 3252.04 3487.36 3255.78C3481.49 3276.2 3484.47 3297.07 3483.78 3317.75C3483.33 3331.09 3484.79 3344.5 3480.52 3357.63C3479.12 3361.92 3479.83 3366.94 3479.81 3371.63C3479.74 3393.76 3479.83 3415.9 3479.71 3438.04C3479.65 3450.06 3480.45 3462.07 3476.63 3473.92C3475.05 3478.82 3475.83 3484.55 3475.82 3489.91C3475.74 3524.79 3475.88 3559.67 3475.67 3594.56C3475.58 3609.9 3476.77 3625.25 3472.47 3640.49C3470.54 3647.35 3471.81 3655.15 3471.8 3662.53C3471.79 3947.63 3471.79 4232.73 3471.79 4517.84C3471.79 4526.5 3471.79 4535.16 3471.79 4544.49C3466.9 4545.83 3463.28 4547.35 3459.55 4547.71C3454.26 4548.22 3448.89 4547.9 3443.56 4547.9C3364.89 4547.92 3286.22 4547.94 3205.69 4547.96C3203.63 4540.58 3203.25 4533.22 3203.25 4525.84C3203.23 3308.85 3203.22 2091.86 3203.28 874.865C3203.28 866.269 3202.01 857.479 3204.89 849.516C3210.97 846.426 3215.86 848.729 3220.91 850.519C3297.79 877.801 3367.14 918.032 3429.26 971.271C3496.71 1029.07 3549.75 1098.04 3589.19 1177.59C3617.32 1234.32 3636.36 1294.31 3646.79 1356.76C3652.19 1389.08 3654.38 1421.87 3656.21 1454.68C3659.66 1516.3 3660.59 1577.94 3660.82 1639.63C3660.87 1650.97 3660.95 1664.17 3660.82 1675.5C3660.6 1694.9 3661.28 1712.44 3660.68 1731.84C3660.23 1746.59 3660.63 1761.36 3660.13 1776.11C3658.67 1819.64 3657.48 1863.2 3655.17 1906.69C3653.26 1942.79 3650.35 1978.84 3647.07 2014.84C3643.67 2052.16 3639.56 2089.41 3635.25 2126.64C3632.18 2153.22 3628.05 2179.67 3624.82 2206.24C3622.72 2223.51 3621.47 2240.89 3619.68 2258.2C3617.48 2279.5 3614.78 2300.75 3612.92 2322.07C3610.82 2346.08 3609.43 2370.15 3607.83 2396.01C3606.62 2406.22 3605.32 2414.61 3603.81 2424.6Z" fill="#808080"/>
</svg>
