<svg width="930" height="930" viewBox="0 0 930 930" fill="none" xmlns="http://www.w3.org/2000/svg">
<path d="M422.09 151.259C450.073 156.519 470.347 160.797 509.779 151.125C510.709 150.897 512.662 150.846 513.466 152.032C513.871 153.264 513.871 154.473 513.871 156.519C513.871 211.203 513.686 820.446 513.686 865.83C502.154 865.83 437.612 865.83 419.57 865.83C419.574 682.136 419.377 214.066 419.383 157.263C419.383 155.496 419.104 153.822 419.662 152.055C419.848 151.466 421.243 151.099 422.09 151.259Z" fill="white"/>
<path d="M335.544 866.016C321.836 866.425 284.952 866.016 266.632 865.551C266.632 815.982 266.372 686.348 266.167 634.26C265.899 566.403 267.75 492.427 261.262 424.206C253.704 347.262 236.22 242.544 282.603 194.152C297.376 178.192 307.83 168.749 333.498 158.751C334.707 158.472 335.172 158.1 335.426 160.425C335.426 162.192 335.426 162.063 335.426 163.617C335.427 387.447 335.544 643.746 335.544 866.016Z" fill="white"/>
<path d="M598.362 866.016C612.07 866.425 648.954 866.016 667.275 865.551C667.275 815.982 667.535 686.348 667.74 634.26C668.007 566.403 666.156 492.427 672.644 424.206C680.202 347.262 697.686 242.544 651.303 194.152C636.531 178.192 626.076 168.749 600.408 158.751C599.199 158.472 598.734 158.1 598.48 160.425C598.48 162.192 598.48 162.063 598.48 163.617C598.479 387.447 598.362 643.746 598.362 866.016Z" fill="white"/>
</svg>
