<?xml version="1.0" standalone="no"?>
<!DOCTYPE svg PUBLIC "-//W3C//DTD SVG 20010904//EN"
 "http://www.w3.org/TR/2001/REC-SVG-20010904/DTD/svg10.dtd">
<svg version="1.0" xmlns="http://www.w3.org/2000/svg"
 width="1173.000000pt" height="1280.000000pt" viewBox="0 0 1173.000000 1280.000000"
 preserveAspectRatio="xMidYMid meet">
<metadata>
Created by potrace 1.15, written by Peter Selinger 2001-2017
</metadata>
<g transform="translate(0.000000,1280.000000) scale(0.100000,-0.100000)"
fill="#000000" stroke="none">
<path d="M10978 12717 c-111 -32 -190 -99 -476 -404 -145 -155 -254 -244 -365
-297 -316 -152 -672 -100 -1173 171 -415 224 -509 251 -600 171 -76 -67 -106
-176 -106 -388 0 -210 35 -445 107 -710 19 -69 87 -279 150 -468 168 -498 215
-695 215 -903 0 -248 -91 -410 -283 -504 -98 -48 -144 -58 -512 -116 -625 -99
-977 -180 -1370 -319 -911 -320 -1619 -879 -2157 -1705 -385 -590 -632 -1207
-893 -2230 -214 -838 -281 -1043 -403 -1221 -106 -156 -441 -503 -652 -675
-232 -190 -480 -350 -766 -492 -177 -89 -281 -134 -660 -290 -400 -165 -552
-252 -694 -396 -181 -183 -262 -408 -264 -731 -1 -137 2 -164 22 -230 95 -300
393 -609 775 -801 146 -74 236 -101 337 -103 107 -1 149 20 176 91 36 93 7
176 -196 563 -152 291 -173 467 -78 660 34 69 58 102 132 176 155 153 353 267
718 412 782 310 1279 423 1604 367 112 -20 171 -38 359 -111 l150 -59 2045 -3
c1767 -2 2049 0 2065 12 18 13 20 25 17 143 -6 268 -63 389 -219 460 -106 49
-352 83 -601 83 -133 0 -162 8 -162 44 0 85 276 626 476 934 178 272 397 516
519 577 58 29 64 30 200 29 99 -1 159 -6 205 -18 241 -65 355 -237 380 -576
25 -329 49 -428 154 -644 235 -481 734 -986 1114 -1127 73 -27 101 -32 177
-33 105 -1 148 17 208 83 70 78 137 241 137 336 0 122 -55 207 -288 448 -227
234 -334 374 -426 555 -112 222 -189 518 -217 842 -15 172 -6 674 15 864 73
646 247 1103 575 1514 43 53 138 161 212 240 386 412 457 502 549 687 122 247
166 516 141 868 -15 209 -38 339 -105 592 -74 276 -90 388 -83 580 8 258 64
386 262 605 109 120 178 217 207 289 32 83 30 235 -6 399 -73 332 -127 675
-176 1111 -31 285 -44 359 -80 454 -26 69 -95 148 -155 177 -56 27 -171 35
-237 17z"/>
</g>
</svg>
