<svg width="5000" height="5000" viewBox="0 0 5000 5000" fill="none" xmlns="http://www.w3.org/2000/svg">
<path d="M4263.76 1122.14C4252.85 1128.27 4241.8 1132.84 4229.87 1137.78C4227.91 1133.8 4225.72 1130.53 4224.6 1126.93C4175.36 969.309 4074.41 855.001 3931.03 776.212C3894.17 755.957 3855.19 740.661 3815.73 726.315C3650.03 666.064 3484.44 605.475 3318.8 545.039C3313.22 543.002 3307.52 541.278 3301.11 539.153C3294.08 554.068 3293.96 570.32 3287.27 585.554C3296.14 589.106 3303.4 592.246 3310.82 594.951C3465.21 651.263 3619.65 707.464 3774.02 763.82C3862.66 796.178 3942.37 843.429 4011.6 907.796C4085.65 976.648 4139.67 1058.76 4173.52 1154.08C4174.83 1157.78 4175.78 1161.61 4177.23 1166.51C4158.5 1177 4138.66 1183.87 4118.39 1191.77C4116.33 1186.65 4114.45 1182.46 4112.92 1178.14C4067.67 1049.78 3984.49 952.525 3869.41 881.551C3833.06 859.129 3794.72 840.621 3754.58 825.964C3593.33 767.086 3432.06 708.279 3270.78 649.462C3269.54 649.01 3268.22 648.785 3265.67 648.125C3263.47 651.495 3260.73 655.035 3258.69 658.939C3245.38 684.368 3230.46 708.763 3212.76 731.398C3210.32 734.508 3207.74 737.499 3204.63 741.263C3200.79 739.935 3196.99 739.109 3193.64 737.392C3155.74 717.944 3117.91 698.354 3080.06 678.82C3074.14 675.769 3068.18 672.809 3061.79 669.576C3057.29 672.304 3052.65 674.888 3048.25 677.822C2959.37 737.015 2862.84 779.297 2760.26 808.247C2757.07 809.149 2753.95 810.326 2747.85 811.739C2689.66 827.317 2633.42 836.398 2576.3 841.06C2496.17 847.6 2417 840.944 2338.36 825.681C2317.58 821.649 2296.97 816.773 2276.28 812.284C2235.69 799.582 2194.95 787.328 2155.5 771.264C2093.05 745.84 2033.23 715.422 1976.94 678.187C1973.12 675.657 1969.08 673.456 1964.66 670.82C1915.9 694.034 1868.24 718.919 1819.13 742.383C1793.34 713.644 1773.92 682.067 1756 648.233C1750.03 650.194 1745.1 651.664 1740.27 653.425C1580.89 711.577 1421.45 769.56 1262.18 828.012C1179.91 858.205 1106.29 902.735 1042.78 963.485C980.588 1022.98 934.962 1093.3 905.264 1174.02C903.203 1179.62 901.118 1185.21 898.971 1190.78C898.756 1191.34 898.024 1191.69 896.669 1192.93C877.455 1187.6 859.396 1177.95 839.369 1170.24C840.566 1165.1 841.166 1160.64 842.641 1156.48C885.838 1034.8 960.679 936.767 1064.44 860.492C1120.07 819.595 1180.77 788.161 1245.6 764.559C1401.27 707.88 1556.94 651.204 1712.59 594.465C1718.75 592.219 1724.68 589.339 1731.13 586.58C1727.05 571.006 1723.21 556.317 1719.03 540.358C1714.23 541.749 1709.95 542.725 1705.85 544.22C1527.71 609.194 1349.48 673.926 1171.51 739.35C1082.82 771.95 1004.27 821.047 937.021 887.789C869.534 954.768 821.935 1033.84 792.828 1124.22C791.236 1129.16 789.434 1134.04 787.32 1140.13C775.983 1135.63 765.651 1131.52 753.927 1126.94C752.997 1121.88 752.743 1117.08 754.03 1112.74C773.711 1046.33 803.452 984.912 844.941 929.272C881.885 879.725 925.819 837.356 975.45 800.705C1030.04 760.393 1090.03 730.52 1153.66 707.442C1235.07 677.919 1316.3 647.946 1397.66 618.306C1462.75 594.593 1527.93 571.117 1593.05 547.479C1636.88 531.57 1680.94 516.268 1724.39 499.388C1763.39 484.235 1798.06 462.181 1824.7 428.983C1836.65 414.091 1852.33 404.154 1869.62 396.525C1897.9 384.048 1927.85 377.512 1958.12 372.721C2006.15 365.116 2054.61 362.095 2103.18 359.394C2206.43 353.652 2309.71 356.448 2412.98 355.798C2495.64 355.278 2578.31 355.514 2660.97 355.773C2725.63 355.976 2790.29 356.125 2854.93 357.477C2890.83 358.229 2926.68 361.268 2962.54 363.527C2983.79 364.867 3005.08 366.088 3026.24 368.438C3063.97 372.628 3101.48 378.338 3137.52 391.04C3163.09 400.053 3184.58 413.866 3202.59 435.238C3226.42 463.525 3256.58 484.378 3291.93 497.22C3384.58 530.885 3477.07 565.004 3569.67 598.796C3647.89 627.338 3726.29 655.389 3804.4 684.218C3845.62 699.431 3887.49 712.961 3927.34 731.816C3976.97 755.296 4023.71 783.401 4066.25 818.081C4157.39 892.382 4222.82 984.524 4257.78 1097.42C4260.14 1105.02 4261.69 1112.86 4263.76 1122.14ZM2342.58 767.931C2370.2 772.272 2397.75 777.214 2425.47 780.839C2500.73 790.68 2575.78 787.349 2650.42 774.738C2727.61 761.696 2801.99 738.849 2873.62 707.331C2943.43 676.616 3009.43 639.369 3068.79 591.056C3072.93 587.692 3077.17 584.401 3080.93 580.649C3098.22 563.417 3092.3 539.056 3069.13 531.967C3064.68 530.605 3060.1 529.626 3055.54 528.667C2950.48 506.571 2844.46 490.697 2737.56 480.903C2660.54 473.845 2583.3 470.421 2505.96 470.369C2445.31 470.328 2384.64 470.813 2324.14 475.7C2273.01 479.83 2221.78 483.398 2170.87 489.469C2119.31 495.617 2068.04 504.284 2016.72 512.354C1995.02 515.767 1973.52 520.468 1951.93 524.596C1939.21 527.03 1929.63 533.272 1926.07 546.481C1922.43 559.956 1928.64 569.66 1938.44 577.875C1945.59 583.869 1952.66 589.976 1959.99 595.745C2008.39 633.847 2061.21 664.779 2116.65 691.342C2187.84 725.451 2262.1 750.63 2342.58 767.931Z" fill="black"/>
<path d="M3880.02 2243.83C3895.19 2242.32 3910.45 2241.45 3925.51 2239.2C4084.85 2215.33 4240.86 2177.77 4394.48 2124.25C4398.52 2141.05 4401.25 2158.09 4403.59 2175.19C4406.19 2194.28 4407.79 2213.54 4411 2232.52C4415.17 2257.13 4400.53 2279.17 4378.89 2285.05C4333.33 2297.45 4288.33 2311.88 4242.91 2324.83C4191.72 2339.42 4139.9 2351.54 4087.65 2361.64C4041.97 2370.47 3996.21 2378.96 3950.33 2386.67C3925.44 2390.86 3900.22 2393.12 3875.15 2396.25C3858.67 2398.32 3842.17 2400.24 3825.72 2402.53C3803.52 2405.61 3789.2 2397.29 3783.6 2375.72C3777.76 2353.21 3773.12 2330.37 3768.53 2307.56C3765.39 2291.94 3763.24 2276.13 3762.2 2258.78C3786.87 2255.16 3810.03 2253.56 3833.09 2251.03C3848.81 2249.3 3864.38 2246.28 3880.02 2243.83Z" fill="black"/>
<path d="M623.944 2126.46C685.714 2145.68 746.55 2164.6 808.22 2180.86C888.56 2202.03 969.608 2219.78 1051.7 2232.66C1077.29 2236.68 1102.95 2240.23 1131.79 2244.36C1175.21 2248.96 1215.4 2253.18 1255.6 2257.4C1254.44 2267.27 1253.86 2277.24 1252.02 2286.97C1246.96 2313.77 1241.4 2340.47 1235.95 2367.19C1235.15 2371.09 1234.11 2374.97 1232.84 2378.75C1227.2 2395.58 1213.76 2405.12 1196.26 2403.06C1160.62 2398.87 1125.04 2394.13 1089.5 2389.13C1061.19 2385.15 1032.84 2381.21 1004.77 2375.89C957.736 2366.97 910.804 2357.45 864.034 2347.24C832.201 2340.29 800.496 2332.53 769.131 2323.72C724.935 2311.3 681.131 2297.5 637.109 2284.46C619.311 2279.18 609.021 2267.47 605.683 2249.42C605.204 2246.83 604.783 2244.09 605.096 2241.51C607.822 2219.07 610.714 2196.65 613.573 2174.23C614.414 2167.63 614.956 2160.98 616.257 2154.47C618.063 2145.45 620.456 2136.54 623.944 2126.46Z" fill="black"/>
</svg>
